<?xml version="1.0" standalone="no"?>
<!DOCTYPE svg PUBLIC "-//W3C//DTD SVG 1.1//EN" "http://www.w3.org/Graphics/SVG/1.1/DTD/svg11.dtd" >
<svg xmlns="http://www.w3.org/2000/svg" xmlns:xlink="http://www.w3.org/1999/xlink" version="1.1">
<metadata>
Created by FontForge 20170924 at Mon Mar  4 19:21:37 1996
 By www-data
Typeface (c) of The Monotype Corporation plc. Data (c) of The Monotype Corporation plc/Type Solutions Inc. 1990-91-92 All rights reserved. Portions (c) 1992 Microsoft Corp. All rights reserved.
</metadata>
<defs>
<font id="OldEnglishTextMT" horiz-adv-x="1044" >
  <font-face 
    font-family="Old English Text MT"
    font-weight="400"
    font-stretch="normal"
    units-per-em="2048"
    panose-1="3 4 9 2 4 5 8 3 8 6"
    ascent="1638"
    descent="-410"
    x-height="1066"
    cap-height="1515"
    bbox="-399 -442 2753 2054"
    underline-thickness="102"
    underline-position="-256"
    unicode-range="U+0020-F002"
  />
<missing-glyph horiz-adv-x="1479" 
d="M161 0v1469h1166v-1469h-1166zM1143 184v1101h-798v-1101h798z" />
    <glyph glyph-name=".notdef" horiz-adv-x="1479" 
d="M161 0v1469h1166v-1469h-1166zM1143 184v1101h-798v-1101h798z" />
    <glyph glyph-name="glyph1" horiz-adv-x="0" 
 />
    <glyph glyph-name="glyph2" horiz-adv-x="523" 
 />
    <glyph glyph-name="space" unicode=" " horiz-adv-x="523" 
 />
    <glyph glyph-name="exclam" unicode="!" horiz-adv-x="575" 
d="M110 1180l178 185l178 -185q-126 -253 -156 -806h-42q-24 319 -63 505t-95 301zM288 0l-152 152l152 153l153 -153z" />
    <glyph glyph-name="quotedbl" unicode="&#x22;" horiz-adv-x="1131" 
d="M309 719h-48q-69 185 -87 327t-14 192v146h244v-146q0 -47 -17 -188.5t-78 -330.5zM789 719h-48q-69 185 -87 327t-14 192v146h244v-146q0 -47 -17 -188.5t-78 -330.5z" />
    <glyph glyph-name="numbersign" unicode="#" horiz-adv-x="1368" 
d="M81 1001h315l84 391h165l-85 -391h379l83 391h166l-84 -391h180v-165h-212l-68 -327h280v-166h-312l-83 -388h-166l84 388h-382l-80 -388h-166l82 388h-180v166h214l68 327h-282v165zM528 836l-68 -326h380l68 326h-380z" />
    <glyph glyph-name="dollar" unicode="$" 
d="M597 1469v-88q134 -22 289 -88l-80 -182l-209 60v-378l257 134q133 -147 133 -355q0 -132 -66 -245q-99 -173 -324 -327v-178h-110v199l-429 120l114 183l315 -86v447l-239 -123q-114 114 -152.5 193.5t-38.5 181.5q0 122 59.5 226.5t168.5 164.5q80 45 202 56v85h110z
M487 1202l-217 62q-60 -104 -60 -202q0 -104 52.5 -188t171.5 -166l53 27v467zM597 207l138 -37q51 64 76.5 134t25.5 147q0 101 -50 190.5t-135 129.5l-55 -28v-536z" />
    <glyph glyph-name="percent" unicode="%" horiz-adv-x="2009" 
d="M602 -68h-131l910 1458h132zM531 635q-136 43 -214 141t-78 212q0 116 79 225.5t213 170.5q93 -38 140 -75q73 -58 111.5 -128.5t38.5 -147.5q0 -79 -41 -160t-109 -144q-47 -43 -140 -94zM625 770q39 56 53.5 98t14.5 92q0 88 -64.5 166.5t-192.5 119.5
q-70 -75 -70 -190q0 -90 60.5 -164.5t198.5 -121.5zM1487 0q-136 43 -214 141t-78 212q0 116 79 225.5t213 170.5q92 -38 140 -75q73 -57 111.5 -128t38.5 -148q0 -79 -41 -159.5t-109 -144.5q-47 -43 -140 -94zM1581 135q39 56 53.5 98t14.5 92q0 88 -64.5 166.5
t-192.5 119.5q-70 -75 -70 -190q0 -90 60 -164.5t199 -121.5z" />
    <glyph glyph-name="ampersand" unicode="&#x26;" horiz-adv-x="1622" 
d="M386 0l-300 458l483 318l-192 343q-25 44 -25 81q0 32 22 57q34 40 87 58q14 5 19 7l456 193q74 -34 125 -111t51 -167q0 -69 -30 -126t-94 -110q-40 -34 -192 -132l211 -379l299 209q73 -57 115 -76t77 -19q13 0 30 3q8 1 13 1l9 -3q5 -7 5 -15q0 -27 -64.5 -78
t-138.5 -51q-96 0 -178 92l-145 -102q62 -112 98 -156.5t97.5 -77.5t140.5 -33q57 0 130 35q8 4 13 4t8 -4q5 -5 5 -11q0 -30 -36.5 -83t-107 -89t-151.5 -36q-90 0 -161 37t-126 102q-40 47 -111 170zM774 912q96 53 135 114q27 43 27 106q0 93 -64 167t-129 74
q-55 0 -95.5 -39t-40.5 -88q0 -38 37 -104zM561 177l245 172l-215 386l-275 -180z" />
    <glyph glyph-name="quotesingle" unicode="'" horiz-adv-x="569" 
d="M309 719h-48q-69 185 -87 327t-14 192v146h244v-146q0 -47 -17 -188.5t-78 -330.5z" />
    <glyph glyph-name="parenleft" unicode="(" horiz-adv-x="682" 
d="M619 -367q-241 155 -386 400t-145 529q0 298 156 555q129 212 380 390l19 -34q-147 -108 -237 -310q-106 -237 -106 -576q0 -363 112 -618q79 -176 231 -306z" />
    <glyph glyph-name="parenright" unicode=")" horiz-adv-x="682" 
d="M63 -367l-23 30q152 130 230 306q113 255 113 618q0 339 -106 576q-91 202 -237 310l18 34q252 -178 380 -390q157 -257 157 -555q0 -284 -145 -529t-387 -400z" />
    <glyph glyph-name="asterisk" unicode="*" 
d="M402 764q68 110 100 312q-21 -11 -57 -30q-130 -67 -207 -158l-157 75l83 156q60 -20 144 -20q78 0 179 20q-92 86 -153 130q-36 25 -108 58l25 170l174 -30q2 -58 22.5 -127t73.5 -177q94 175 99 304l172 30l26 -170q-72 -29 -113 -59q-72 -52 -147 -129
q110 -20 183 -20q94 0 142 20l82 -156l-161 -75q-62 78 -259 188q21 -125 38 -177q28 -85 61 -135l-123 -125z" />
    <glyph glyph-name="plus" unicode="+" horiz-adv-x="1366" 
d="M130 763h459v461h185v-461h461v-185h-461v-457h-185v457h-459v185z" />
    <glyph glyph-name="comma" unicode="," horiz-adv-x="575" 
d="M138 158l148 147l147 -138q-55 -243 -271 -347l-24 35q66 54 80 77q23 38 23 76q0 32 -20.5 65.5t-82.5 84.5z" />
    <glyph glyph-name="hyphen" unicode="-" horiz-adv-x="811" 
d="M338 592h347v-129h-347v129z" />
    <glyph glyph-name="period" unicode="." horiz-adv-x="575" 
d="M287 0l-152 152l152 153l153 -153z" />
    <glyph glyph-name="slash" unicode="/" horiz-adv-x="1146" 
d="M182 -68h-130l910 1458h131z" />
    <glyph glyph-name="zero" unicode="0" 
d="M512 1384q227 -78 353 -249.5t126 -403.5q0 -228 -117.5 -414.5t-318.5 -316.5q-143 34 -259.5 128t-178 234t-61.5 291q0 216 125 420t331 311zM338 1200q-138 -157 -138 -378q0 -156 67 -294t191.5 -228t254.5 -109q72 99 102.5 185.5t30.5 191.5q0 144 -58.5 274.5
t-175.5 221t-274 136.5z" />
    <glyph glyph-name="one" unicode="1" 
d="M197 1174l250 210q91 -37 134.5 -100t43.5 -163v-837q0 -35 12 -52q21 -31 78 -73l109 89l32 -34l-264 -214l-243 159l67 89v749q0 76 -10 105q-16 48 -48 76q-23 19 -40 19q-20 0 -55 -29q-21 -17 -36 -28z" />
    <glyph glyph-name="two" unicode="2" 
d="M76 1072l416 312l482 -290q4 -58 4 -97q0 -164 -90 -280t-403 -293q-141 -80 -198.5 -128.5t-103.5 -118.5q122 54 212.5 75.5t178.5 21.5q75 0 153.5 -11t119.5 -22l155 -50l-174 -191q-156 54 -213 65q-90 19 -170 19q-152 0 -331 -69q-38 -15 -44 -15t-9 4q-4 5 -4 15
q0 48 33 117q44 94 127 185q59 66 192 174t184 164q71 79 109.5 165t38.5 183q0 145 -108 239l-415 -318z" />
    <glyph glyph-name="three" unicode="3" 
d="M438 1384l470 -205q6 -37 6 -66q0 -121 -74 -211.5t-197 -149.5q167 -38 251.5 -132t84.5 -202q0 -115 -94 -207q-121 -120 -447 -211l-401 310l144 143l446 -343q56 50 82.5 108.5t26.5 143.5q0 163 -93.5 259.5t-250.5 96.5q-50 0 -108 -9v73h20q174 0 270 94t96 258
q0 66 -20.5 92.5t-47.5 26.5q-28 0 -68 -31l-16 -12l-273 -195l-132 135z" />
    <glyph glyph-name="four" unicode="4" 
d="M969 621l38 -179h-244v-207l61 -30q33 -15 45 -15q17 0 36 15l35 30l29 -35l-240 -200l-239 149l64 86v207h-475l-42 194l559 748q71 -10 119 -71t48 -171v-521h206zM554 621v418q0 58 -14 89t-43 48l-414 -555h471z" />
    <glyph glyph-name="five" unicode="5" 
d="M272 1366h622l-76 -192h-529l-76 -470l422 284q168 -73 254 -192t86 -260q0 -180 -119.5 -331.5t-404.5 -204.5l-381 229l143 155l457 -266q67 56 94 107q41 76 41 159q0 138 -84.5 248t-269.5 174l-300 -200z" />
    <glyph glyph-name="six" unicode="6" 
d="M914 1207l-142 -179l-369 173q-76 -109 -108 -210q-44 -142 -44 -277q0 -35 4 -83l453 301q140 -56 209 -149t69 -212q0 -146 -84 -263q-120 -167 -374 -308q-238 81 -354.5 237t-116.5 375q0 165 56 290t173.5 255t251.5 227zM262 578q39 -157 162 -261t298 -132
q99 106 99 239q0 101 -74 189.5t-228 136.5z" />
    <glyph glyph-name="seven" unicode="7" 
d="M256 1366h752v-54q-145 -165 -225 -295q-124 -203 -193.5 -435t-77.5 -487l-281 -95q1 109 27 213q46 181 135 362q68 139 187 301q43 59 247 297h-400q-121 0 -186.5 -40.5t-119.5 -143.5h-51z" />
    <glyph glyph-name="eight" unicode="8" 
d="M424 1384h77q219 0 327 -86t108 -191q0 -70 -49 -138t-156 -144q110 -39 166 -101q84 -93 84 -205q0 -119 -84 -230.5t-356 -288.5h-36q-207 0 -322.5 102.5t-115.5 240.5q0 92 61 176t147 148q-82 29 -126.5 89.5t-44.5 132.5q0 96 67 208t253 287zM301 1193
q-31 -36 -46.5 -74.5t-15.5 -80.5q0 -74 60 -117q41 -29 145 -43q75 -10 227 -38q58 35 90.5 81t32.5 90q0 51 -44 96t-139 63q-71 14 -310 23zM332 652q-62 -53 -93 -103.5t-31 -98.5q0 -86 88 -152q115 -87 319 -87q136 0 205 59.5t69 134.5q0 49 -35 94.5t-136 80.5
q-69 24 -224 45q-114 16 -162 27z" />
    <glyph glyph-name="nine" unicode="9" 
d="M135 173l141 178l371 -170q76 115 106 213q45 146 45 282q0 31 -7 80l-453 -307q-104 51 -142 82q-61 49 -101.5 124t-40.5 165q0 147 107 281q131 163 348 283q231 -66 354.5 -225.5t123.5 -383.5q0 -169 -63 -312q-48 -109 -159.5 -231.5t-255.5 -231.5zM782 804
q-77 316 -460 394q-49 -58 -74 -116t-25 -117q0 -71 35.5 -140t103.5 -118q51 -37 162 -77z" />
    <glyph glyph-name="colon" unicode=":" horiz-adv-x="575" 
d="M287 0l-152 152l152 153l153 -153zM287 761l-152 152l152 153l153 -153z" />
    <glyph glyph-name="semicolon" unicode=";" horiz-adv-x="575" 
d="M138 158l148 147l147 -138q-55 -243 -271 -347l-24 35q66 54 80 77q23 38 23 76q0 32 -20.5 65.5t-82.5 84.5zM287 761l-152 152l152 153l153 -153z" />
    <glyph glyph-name="less" unicode="&#x3c;" horiz-adv-x="1366" 
d="M1234 127l-1103 461v167l1103 462v-200l-852 -345l852 -345v-200z" />
    <glyph glyph-name="equal" unicode="=" horiz-adv-x="1366" 
d="M131 1003h1103v-185h-1103v185zM131 529h1103v-185h-1103v185z" />
    <glyph glyph-name="greater" unicode="&#x3e;" horiz-adv-x="1366" 
d="M131 1217l1103 -462v-167l-1103 -461v199l852 345l-852 345v201z" />
    <glyph glyph-name="question" unicode="?" horiz-adv-x="682" 
d="M34 1096l150 269h35q179 0 280 -88t101 -211q0 -63 -28.5 -126.5t-119.5 -170.5t-119.5 -182t-28.5 -210h-44q-2 42 -2 62q0 74 16.5 153t68.5 223q39 108 39 180q0 35 -21 77t-60 65t-81 23q-82 0 -157 -81zM280 0l-152 152l152 153l153 -153z" />
    <glyph glyph-name="at" unicode="@" horiz-adv-x="1886" 
d="M1168 925l244 10l-183 -628q-31 -104 -31 -158q0 -30 24 -53.5t55 -23.5q72 0 181 79.5t180.5 227t71.5 314.5q0 276 -177.5 453.5t-462.5 177.5q-246 0 -447 -115.5t-319 -335.5t-118 -472q0 -346 220.5 -566.5t561.5 -220.5q281 0 504 151t316 400h61
q-120 -294 -349.5 -450.5t-533.5 -156.5q-385 0 -635 248.5t-250 629.5q0 262 124.5 485.5t348 344.5t495.5 121q221 0 386.5 -88.5t248.5 -248.5t83 -338q0 -208 -89.5 -378.5t-223 -252t-287.5 -81.5q-99 0 -151 49t-52 123q0 58 24 144q-83 -138 -128 -190
q-63 -71 -125 -104q-41 -22 -93 -22q-70 0 -118.5 56.5t-48.5 163.5q0 167 66 316t155 246t193 154q48 27 103 27q56 0 92.5 -35t49.5 -122zM1015 891q-20 0 -50.5 -21.5t-83.5 -115.5t-100.5 -241t-47.5 -239q0 -43 19 -67t40 -24q28 0 77 47q85 81 152 239.5t67 291.5
q0 68 -26 103q-19 27 -47 27z" />
    <glyph glyph-name="A" unicode="A" horiz-adv-x="1493" 
d="M1389 1515l19 -46q-72 -35 -106.5 -69.5t-48.5 -77t-14 -126.5q0 -27 1 -72l17 -747q2 -123 26 -161q17 -27 41 -27q29 0 90 58l29 -37l-186 -159l-62 -51q-79 37 -112.5 98t-37.5 195l-387 -293q-323 213 -440 213q-29 0 -49 -18q-15 -13 -15 -37q0 -26 19 -57
q25 -42 25 -55q0 -19 -14 -32.5t-34 -13.5q-25 0 -40 20q-22 27 -22 70q0 48 27.5 107.5t81.5 129.5q11 15 20 28l143 195q-145 109 -203.5 209t-58.5 224q0 144 73.5 267t221 194t303.5 71q239 0 461 -166q54 57 104 93.5t128 72.5zM897 1283q-126 62 -251 62
q-133 0 -250 -58.5t-175 -151t-58 -189.5q0 -205 222 -363l334 457q-75 41 -135 41q-83 0 -136 -78q-10 -16 -20 -16q-6 0 -11.5 6t-5.5 15q0 31 31.5 86t93 89t129.5 34q70 0 159 -34zM1026 1180q-29 32 -39 41q-7 7 -50 37l-437 -596h538zM392 516l-90 -125l508 -219
l236 174l-4 170h-650z" />
    <glyph glyph-name="B" unicode="B" horiz-adv-x="1728" 
d="M1345 1515q104 -28 157 -82q75 -76 75 -175q0 -81 -58.5 -167.5t-215.5 -205.5q134 -12 196.5 -44t87.5 -82t25 -167v-344q-356 -40 -607 -248q-87 60 -165 85q-126 42 -270 42q-177 0 -284 -72q-72 -48 -72 -96q0 -18 20.5 -53.5t20.5 -56.5q0 -20 -15 -35t-33 -15
q-28 0 -50.5 26.5t-22.5 68.5q0 39 27.5 88.5t119 142.5t117 136t25.5 80q0 44 -29.5 72.5t-74.5 28.5q-41 0 -67 -23t-35 -76h-36q-1 19 -1 28q0 84 56.5 138t150.5 54q11 0 34 -1q-1 98 -29 142q-44 71 -134 71q-56 0 -99 -29q-23 -15 -46 -62l-38 13q10 96 74.5 153
t164.5 57q37 0 92 -6q4 141 26 205.5t74 118t197 148.5q-137 -45 -232 -45q-61 0 -160 24q-57 13 -81 13q-45 0 -76 -30.5t-41 -108.5h-38q3 91 33.5 152.5t93.5 99t133 37.5q52 0 173 -30t196 -30q55 0 106.5 12t135.5 48l20 -43q-216 -105 -287.5 -204.5t-71.5 -264.5
v-411q0 -135 -30 -210t-121 -171q177 75 238 161t61 253v295q0 206 36 290.5t132.5 145t421.5 159.5zM1172 1418q-108 -49 -145.5 -83t-52 -80.5t-14.5 -157.5v-410q0 -110 -20 -165.5t-77 -109t-231 -155.5q94 14 175 14q138 0 261 -38v833h44v-260q138 83 204 170.5
t66 189.5q0 84 -51.5 144.5t-158.5 107.5zM1112 662q82 -29 148 -29t148 29q0 69 -31 111t-117 79q-109 -72 -148 -93v-97zM1408 618q-84 -29 -148 -29q-69 0 -148 29v-178q77 28 144 28q65 0 152 -28v178zM1408 394q-92 33 -156 33q-67 0 -140 -33v-178q43 -19 81 -43
q102 53 215 83v138z" />
    <glyph glyph-name="C" unicode="C" horiz-adv-x="1493" 
d="M579 1370l24 -28q-149 -101 -222 -216q-94 -148 -94 -322q0 -211 139 -390q60 49 72 82.5t12 183.5v448l428 357q150 -59 236 -76.5t202 -17.5h23l16 -36l-165 -158q-167 18 -377 122l11 -1142l38 -1q144 0 262.5 49t245.5 159l30 -29q-93 -128 -182.5 -199
t-215.5 -113.5t-250 -42.5q-184 0 -346.5 89t-254.5 255t-92 342q0 217 130 402q102 145 330 282zM828 1325l-117 -101v-456q0 -85 -9 -113q-10 -37 -46 -79q-73 -85 -204 -194q80 -89 171.5 -136.5t214.5 -63.5z" />
    <glyph glyph-name="D" unicode="D" horiz-adv-x="1729" 
d="M37 1485h47q16 -50 53 -71q48 -28 156 -28q69 0 438 14q223 9 278 9q166 0 282.5 -57t189.5 -175t97 -325q17 -145 29 -639q-195 -123 -300 -213q-318 89 -561 89q-165 0 -306 -39.5t-299 -126.5l-29 38q205 106 360 217t204.5 198.5t49.5 222.5q0 49 -2 145
q-2 67 -2 139q0 127 14.5 187t61.5 138h-26q-122 -70 -162.5 -127.5t-40.5 -146.5l8 -355q0 -142 -85 -254.5t-408 -324.5l-29 39q163 114 215 187t52 153q0 69 -44 117.5t-97 48.5q-27 0 -50 -15t-62 -62l-32 32q34 86 90.5 126t135.5 40q23 0 50.5 -5t59.5 -15
q-2 58 -2 101q0 157 63.5 255.5t243.5 205.5q-165 -17 -285 -17q-127 0 -218 36q-68 28 -100 89.5t-38 168.5zM847 1208q-43 -73 -58 -127q-20 -74 -20 -138l8 -394q0 -76 -38 -155q-29 -59 -109 -144q146 24 223 23l57 -1v936h-63zM961 824q61 -43 106.5 -59t98.5 -16
t99 16.5t108 58.5q-19 225 -116 304.5t-296 79.5v-384zM961 494q68 39 116 53.5t105 14.5q55 0 102 -13.5t113 -50.5l-17 271q-64 -39 -110.5 -53.5t-101.5 -14.5q-53 0 -105 17t-102 51v-275zM961 269q122 -10 198.5 -24.5t239.5 -60.5q2 151 2 156q0 12 -2 96
q-64 44 -112.5 61t-105.5 17q-58 0 -107.5 -17t-112.5 -61v-167z" />
    <glyph glyph-name="E" unicode="E" horiz-adv-x="1493" 
d="M578 1369l20 -31q-166 -106 -244.5 -243.5t-78.5 -294.5q0 -202 138 -386q58 48 70 80.5t12 167.5v460l437 373q122 -59 205.5 -82t164.5 -23q42 0 104 9l25 -30l-345 -349h270l-109 -192h-380v-648l64 -3q142 0 282 71q106 53 218 166l24 -38q-116 -181 -256 -269
q-171 -107 -390 -107q-345 0 -545 238q-159 189 -159 443q0 158 65 294.5t183 244.5q84 76 225 149zM821 1320l-122 -102v-464q0 -77 -8.5 -107t-39.5 -65q-66 -78 -212 -199q87 -92 172.5 -137t209.5 -62v1136zM1204 1207q-105 15 -172.5 36t-164.5 69v-447z" />
    <glyph glyph-name="F" unicode="F" horiz-adv-x="1737" 
d="M1651 1495h44q-4 -88 -27 -134q-32 -61 -95 -97t-139 -36q-81 0 -193 44v-265h313l-57 -149h-256v-475q0 -141 -19.5 -205.5t-76.5 -123.5t-143 -99q-123 -58 -198 -83l-419 -140q-198 73 -230 73q-28 0 -50 -19.5t-31 -63.5l-42 10q0 69 17 109q27 64 76 97t105 33
q79 0 204 -54q88 -39 107.5 -45t37.5 -6q31 0 57 25.5t33.5 78t7.5 218.5v670l-62 1q-154 0 -228.5 -35.5t-128.5 -119.5l-39 16q40 132 105 190q110 98 305 98q16 0 48 -1v213l69 -3q112 0 221 45.5t183 108.5q49 43 104 124q164 -105 269 -105q46 0 78 24.5t50 80.5z
M1036 1231q-67 -36 -153 -55v-806q0 -42 -8 -158q-5 -68 -16 -103q-17 -52 -50 -98.5t-112 -120.5q131 48 209 118.5t104 152t26 244.5v826z" />
    <glyph glyph-name="G" unicode="G" horiz-adv-x="1622" 
d="M1449 1384l18 -33l-364 -270q107 0 218.5 -54t168.5 -150t57 -201q0 -167 -115.5 -321.5t-329 -254.5t-402.5 -100q-181 0 -330.5 81t-221 203t-71.5 269q0 165 80 307t297 314l404 321q169 -82 264 -109t187 -27q69 0 140 25zM705 1322l-17 -17v-473l468 352
q-219 55 -451 138zM480 1138q-115 -118 -161.5 -222t-46.5 -242q0 -111 30.5 -196t90.5 -164q57 52 72 88t15 134v602zM864 632q70 -48 128 -68t128 -20q64 0 118 16t137 63q-25 105 -92 170q-109 106 -272 106q-69 0 -147 -27v-240zM820 852q-80 -38 -132 -77v-168
q0 -77 -11 -103.5t-47 -55.5q-22 -17 -36 -28l-172 -144q90 -95 183 -140.5t215 -52.5v769zM864 354q125 66 237 66q108 0 229 -60q51 106 51 202v13q-90 -45 -145 -60t-120 -15q-62 0 -125 19t-127 56v-221zM864 84q93 5 152 26q90 31 170 90q60 44 122 122
q-121 49 -214 49q-113 0 -230 -65v-222z" />
    <glyph glyph-name="H" unicode="H" horiz-adv-x="1729" 
d="M1228 1515l19 -42q-132 -46 -195 -93t-82 -99t-19 -169v-207l390 313q123 -78 186 -147t83.5 -138t20.5 -226v-149q0 -117 -14.5 -174t-58.5 -113q-64 -82 -220 -205q-112 -88 -138 -122t-26 -58q0 -13 10 -23t28 -10q11 0 30.5 4.5t30.5 4.5q26 0 39 -13t13 -36
q0 -28 -22 -46q-30 -25 -73 -25q-46 0 -79 36.5t-33 88.5q0 36 24.5 84.5t121.5 168t125.5 181t39.5 149.5q-124 58 -225 58q-129 0 -255 -59t-291 -209q69 3 103 3q79 0 212 -13q37 -4 65 -4q49 0 87.5 24t78.5 82l43 -24l-223 -314q-137 58 -238.5 82t-205.5 24
q-117 0 -208 -28.5t-128 -72.5q-28 -34 -28 -61q0 -19 24 -55q17 -24 17 -46q0 -25 -15 -41t-34 -16q-24 0 -47 27t-23 66q0 47 25.5 92.5t113 134t113.5 136.5t26 94q0 35 -19 55t-51 20q-60 0 -97 -86h-44q9 79 33 120t73 70q38 22 102 27q-5 121 -48.5 167.5t-124.5 46.5
q-50 0 -79 -18.5t-58 -70.5l-37 11q12 65 33 98q33 49 88 76.5t117 27.5q38 0 88 -5q-3 47 -3 79q0 120 66 229q48 78 161 163q-112 -36 -151 -36q-34 0 -180 26q-57 11 -76 11q-35 0 -63.5 -29.5t-42.5 -107.5h-51q16 92 44 141q44 73 110 112.5t133 39.5q40 0 140 -28.5
t159 -28.5q120 0 268 75l21 -42q-203 -79 -279 -196q-50 -77 -50 -252v-467q0 -124 -25.5 -192.5t-113.5 -177.5q122 69 187 139.5t82.5 132t17.5 212.5v340q0 159 36.5 236t126.5 136t319 131zM951 847v-45q131 -52 243 -52q67 0 117.5 13t117.5 47q-18 74 -65 129.5
t-150 113.5zM951 501q123 53 234 53q61 0 113.5 -11t130.5 -42v257q-75 -32 -126 -43.5t-114 -11.5q-114 0 -238 49v-251z" />
    <glyph glyph-name="I" unicode="I" horiz-adv-x="1260" 
d="M1178 1515l17 -34q-105 -31 -145 -82.5t-40 -138.5q0 -108 47 -382q38 -221 45 -279.5t7 -121.5q0 -159 -59 -265.5t-151 -155.5t-167 -49q-79 0 -263 58q-146 45 -208 45t-105 -31.5t-64 -93.5l-38 15q24 94 63 146q51 68 108.5 95t167.5 33t150 47q40 40 40 127
q0 175 -69 266q-50 66 -132 66q-34 0 -69.5 -14.5t-95.5 -58.5l-29 24q53 90 124 135.5t166 45.5q14 0 34 -1q3 163 46.5 267.5t165.5 239.5q-119 -57 -152 -67.5t-71 -10.5q-31 0 -90.5 11t-89.5 11q-70 0 -107 -31t-47 -98l-38 8q17 111 72 174q78 88 209 88q38 0 91 -12
q99 -21 167 -21q53 0 93 9t97 36l25 -29q-105 -86 -145.5 -173t-40.5 -245q0 -83 6 -145q2 -28 26 -182q29 -194 29 -255q0 -114 -69 -177q-51 -46 -166 -70q117 -102 163.5 -127t93.5 -25q67 0 113.5 48.5t46.5 126.5q0 94 -45 357q-54 310 -54 464q0 144 40.5 229.5
t120.5 140.5q60 41 176 62z" />
    <glyph glyph-name="J" unicode="J" horiz-adv-x="1386" 
d="M1317 1515l35 -33q-129 -141 -176.5 -246.5t-47.5 -229.5q0 -62 4 -221q2 -84 2 -174q0 -277 -69 -414q-91 -180 -298 -316q-171 -113 -301 -113q-36 0 -63.5 6.5t-88.5 29.5q-83 33 -135 33q-44 0 -72 -19q-19 -13 -36 -55l-40 17q26 99 68 146q68 74 180 74
q47 0 105 -19q83 -27 123 -27q78 0 126.5 49.5t48.5 130.5q0 111 -77 218q-107 148 -263 148q-29 0 -72 -10l-22 36q94 56 177 56q45 0 83 -11.5t93 -44.5q-11 89 -36 135q-33 61 -88.5 95.5t-107.5 34.5q-47 0 -99 -36l-27 34q57 48 104 67t105 19q77 0 170 -53
q4 114 30 181.5t96 140t227 173.5q-143 -45 -239 -45q-99 0 -220 43.5t-186 43.5q-85 0 -134 -40.5t-49 -82.5q0 -13 7.5 -21t18.5 -8q10 0 30.5 9t36.5 9q34 0 58 -24.5t24 -60.5q0 -40 -26.5 -67t-67.5 -27q-53 0 -93.5 45.5t-40.5 120.5q0 109 100 200t245 91
q91 0 308 -49q174 -40 273 -40q93 0 158.5 23t138.5 78zM1174 1374q-142 -69 -209 -133q-89 -87 -134 -201.5t-45 -312.5l6 -443q0 -163 -41 -254q-29 -66 -124 -141q111 46 160 84q68 53 107 137.5t39 214.5l-7 454q0 204 69 360q47 108 179 235z" />
    <glyph glyph-name="K" unicode="K" horiz-adv-x="1729" 
d="M995 1515l37 -23q-83 -142 -118 -251t-46 -255l383 304l233 -271l-398 -284q92 -49 160.5 -121.5t159.5 -226.5t111 -175.5t39 -21.5t58 39l52 49l31 -37l-249 -241q-52 36 -82 74.5t-131 219.5l-258 -294q-120 53 -217 76t-199 23q-100 0 -196 -22.5t-221 -76.5l-32 46
q196 156 281 277q42 60 42 116q0 53 -35 88t-83 35q-44 0 -78 -44l-35 16q18 59 60.5 91.5t96.5 32.5q35 0 73 -14t79 -43q2 32 2 56q0 107 -62 173t-149 66q-50 0 -100 -44l-33 13q24 64 71 96.5t109 32.5q33 0 71.5 -13.5t81.5 -40.5q-2 42 -2 73q0 93 38 164t217 258
q-106 -61 -167.5 -81.5t-121.5 -20.5q-32 0 -83 9t-73 9q-73 0 -123.5 -37.5t-96.5 -125.5l-33 8q21 101 51 151q47 80 117.5 124t142.5 44q56 0 139 -26t136 -26q87 0 187 52l36 -23q-82 -120 -123.5 -274.5t-41.5 -299.5l4 -285q0 -64 -20 -117.5t-57.5 -96t-46.5 -50.5
l-294 -246q77 41 165 79q160 68 228.5 118t105.5 127.5t37 196.5l-5 311q0 113 39.5 257.5t135.5 302.5zM1122 1130l-254 -204v-30l2 -159l-2 -97l420 297zM1213 333q-93 149 -172 204.5t-173 59.5q-3 -113 -44.5 -188t-139.5 -144q154 -8 227 -26t162 -64z" />
    <glyph glyph-name="L" unicode="L" horiz-adv-x="1493" 
d="M1187 1515l23 -36q-115 -17 -172 -66.5t-57 -146.5q0 -53 11 -153q20 -172 20 -281q0 -147 -65.5 -257.5t-306.5 -316.5q158 51 284 51q115 0 206.5 -31.5t203.5 -109.5l100 90l29 -35l-259 -223q-106 79 -211.5 115.5t-246.5 36.5q-131 0 -246.5 -31t-297.5 -121l-20 28
q181 134 240 214.5t59 151.5q0 68 -43 113.5t-99 45.5q-28 0 -64 -17l-30 29q37 33 68 46t72 13q24 0 49 -6.5t50 -20.5q2 23 2 37q0 64 -48 111t-118 47q-50 0 -103 -40l-35 24q37 49 76 69q62 33 132 33q15 0 33 -2.5t38 -7.5q-6 61 -6 102q0 121 36.5 206t125.5 177
q-96 -34 -163 -34q-66 0 -167 31q-46 14 -73 14q-52 0 -87.5 -33t-35.5 -79q0 -17 9 -40l-43 -15q-11 47 -11 78q0 97 75 168.5t180 71.5q48 0 148.5 -36t156.5 -36q102 0 194 72l29 -36q-100 -75 -140.5 -148t-40.5 -177q0 -77 10 -178q20 -190 20 -258q0 -145 -47 -262.5
t-170 -271.5q187 133 268.5 273t81.5 315q0 99 -14 217.5t-14 199.5q0 72 34 142t90 110t124 58q51 13 156 16z" />
    <glyph glyph-name="M" unicode="M" horiz-adv-x="2069" 
d="M1927 1428l31 -32q-66 -73 -84 -119.5t-18 -140.5v-773q0 -119 20 -149.5t53 -30.5q27 0 78 46l29 -39l-242 -190q-87 44 -117.5 101.5t-30.5 201.5v956l-168 129l-66 -41v-498h121l-121 -150v-421l78 64l30 -32l-370 -310q-84 100 -136 146q-38 33 -90 60v36
q47 16 62 51q11 26 11 122v284h-303v-431q0 -178 -90.5 -274t-236.5 -96q-32 0 -114 12q-56 8 -81 8q-51 0 -74.5 -23t-23.5 -78h-39q-12 43 -12 72q0 54 28 101.5t75 70.5q36 18 132 27t142 60.5t46 142.5q0 143 -67 235.5t-162 92.5q-74 0 -122 -70l-36 15q27 74 62.5 114
t95.5 63q44 17 128 18q-1 30 -1 45q0 168 68 283t211.5 211.5t412.5 216.5q95 -51 128.5 -102t37.5 -148l391 250l240 -179zM997 849v298q0 109 -28 158t-100 79q-69 -35 -98 -64q-39 -41 -58 -98t-19 -164v-317l83 108h220zM1368 1317l-166 -109v-359h166v468zM687 1279
q-87 -68 -113 -129.5t-26 -214.5v-566q0 -139 -35.5 -195t-137.5 -97q45 -3 76 -3q74 0 120.5 25.5t61 63t14.5 131.5v754q0 86 11 143q7 35 29 88zM1368 699h-166v-259q0 -134 18 -172q29 -65 78 -65q26 0 70 39v457z" />
    <glyph glyph-name="N" unicode="N" horiz-adv-x="2068" 
d="M1316 1515q175 -43 273 -106q132 -85 200.5 -208t68.5 -262q0 -98 -33.5 -195t-109.5 -214q-27 -42 -262 -355q120 53 241 53q52 0 88.5 -7.5t55.5 -7.5q17 0 31.5 15.5t64.5 111.5l48 -18l-172 -322q-136 46 -225 46q-101 0 -166 -39t-126 -136l-40 20q34 102 122 254
q145 249 217 408q-91 60 -166 85.5t-159 25.5q-70 0 -131.5 -17.5t-144.5 -63.5v-176q0 -161 -16.5 -230t-74 -140.5t-148 -119t-187.5 -47.5q-39 0 -77 8q-22 4 -125.5 34.5t-116.5 33.5q-28 5 -60 5q-47 0 -83.5 -13t-86.5 -47l-28 25q102 181 277 181q71 0 184 -25
q69 -15 94 -15q54 0 93 43.5t39 112.5q0 88 -60.5 148t-148.5 60q-58 0 -124 -49l-28 25q45 56 89 80.5t99 24.5q32 0 66.5 -11t71.5 -33q-17 88 -60 135q-75 82 -188 82q-48 0 -79 -10q-24 -8 -60 -35l-24 35q54 55 99 76.5t99 21.5q46 0 85 -13.5t105 -57.5
q0 81 -26.5 128.5t-93 86.5t-129.5 39q-57 0 -115 -40l-24 33q45 49 84 67q49 25 106 25q49 0 91 -14.5t107 -57.5v223zM991 977q95 -55 164 -76.5t144 -21.5q85 0 161.5 27t178.5 96q-56 143 -190 229.5t-301 86.5q-71 0 -157 -26v-315zM945 1278l-122 -60v-861
q0 -150 -30 -214t-116 -123q103 8 149 41q68 48 93.5 117.5t25.5 237.5v862zM991 637q88 42 149.5 58t132.5 16q90 0 167.5 -26t167.5 -87q28 71 42 136t14 124q0 42 -11 95q-110 -70 -187.5 -96t-161.5 -26q-73 0 -144 20.5t-169 72.5v-287z" />
    <glyph glyph-name="O" unicode="O" horiz-adv-x="1729" 
d="M888 1495q174 -18 272 -50q148 -47 259.5 -133.5t174 -204.5t62.5 -256q0 -128 -66 -252t-226.5 -279t-323.5 -237.5t-319 -82.5q-167 0 -323 83t-241 228.5t-85 321.5q0 101 21 194.5t73 216.5q99 49 232 135q71 47 359 228q58 36 131 88zM812 1296q-68 4 -134 6v-591
q0 -96 -13 -134t-48 -79l-185 -178q94 -80 177.5 -113.5t202.5 -41.5v1131zM855 1029q72 -62 136.5 -89.5t140.5 -27.5q70 0 129.5 27.5t125.5 89.5q-57 74 -106 110q-90 65 -193.5 102t-232.5 52v-264zM473 1171q-85 -63 -122 -106q-49 -57 -82 -139t-33 -180
q0 -212 163 -395q46 43 60 85.5t14 166.5v568zM855 612q71 70 132.5 98t142.5 28q85 0 153 -30t146 -104q27 99 27 172q0 67 -10 117q-8 37 -33 92q-87 -70 -151 -95.5t-142 -25.5q-71 0 -130 23.5t-135 84.5v-360zM855 165q126 7 205 41q120 51 208 140.5t145 216.5
q-138 130 -282 130q-84 0 -160 -45q-56 -32 -116 -108v-375z" />
    <glyph glyph-name="P" unicode="P" horiz-adv-x="1729" 
d="M849 1479h46v-181l277 181q211 -133 291.5 -213t106 -150t25.5 -206v-637l-308 -273q-123 50 -213 73t-179 30v-391h-373v409q-150 -9 -248 -45t-197 -115l-32 39q137 149 236 209t241 89q-1 136 -35 218.5t-123 150t-227 104.5v42q71 35 126 71l259 170v70
q0 98 -19 143.5t-71 75.5t-115 30q-69 0 -154 -51l-26 31q70 65 137.5 95.5t149.5 30.5q91 0 165.5 -38.5t106 -96t33.5 -155.5l120 81v209zM895 921q75 -50 130.5 -69t118.5 -19t119.5 19t132.5 69q-1 86 -26 143t-106.5 123t-239.5 145l-129 -86v-325zM849 1216l-120 -80
v-1380h120v1460zM522 998l-218 -144q68 -30 116 -63.5t102 -88.5v296zM895 558q80 44 136.5 61t115.5 17t113.5 -16.5t135.5 -61.5v311q-83 -48 -138.5 -64.5t-120.5 -16.5q-62 0 -114 15t-128 59v-304zM895 298q118 -4 232.5 -34.5t268.5 -103.5v341q-75 51 -130 69.5
t-119 18.5t-119.5 -18.5t-132.5 -69.5v-203z" />
    <glyph glyph-name="Q" unicode="Q" horiz-adv-x="1729" 
d="M1179 168q-237 -168 -459 -168q-166 0 -322 83t-241 228.5t-85 321.5q0 101 21 194.5t73 216.5q99 49 232 135q71 47 359 228q58 36 131 88q174 -18 272 -50q148 -47 259.5 -133.5t174 -204.5t62.5 -256q0 -127 -60 -239q-85 -162 -255 -314l264 -191l65 53l27 -31
l-211 -180zM812 1296q-68 4 -134 6v-591q0 -94 -12 -131t-43 -74t-191 -184q87 -80 173 -115.5t207 -41.5v1131zM855 1029q72 -62 136.5 -89.5t140.5 -27.5q70 0 129.5 27.5t125.5 89.5q-57 74 -106 110q-90 65 -193.5 102t-232.5 52v-264zM473 1171q-85 -63 -122 -106
q-49 -57 -82 -139t-33 -180q0 -212 163 -395q46 43 60 85.5t14 166.5v568zM855 612q71 70 132.5 98t142.5 28q85 0 153 -30t146 -104q27 99 27 172q0 67 -10 117q-8 37 -33 92q-87 -70 -151 -95.5t-142 -25.5q-71 0 -130 23.5t-135 84.5v-360zM855 165q126 7 205 41
q120 51 208 140.5t145 216.5q-138 130 -282 130q-84 0 -160 -45q-56 -32 -116 -108v-375z" />
    <glyph glyph-name="R" unicode="R" horiz-adv-x="1729" 
d="M1095 1486l345 -439l-321 -217q137 -82 219.5 -194.5t128.5 -290.5q21 -86 43 -126q15 -26 56 -62l100 85l34 -36l-242 -206q-73 46 -105 98q-23 35 -84 237q-33 107 -84 183t-108 114.5t-153 68.5l-68 -44v-415q91 -30 192 -85l104 92l32 -35l-260 -214
q-142 72 -246.5 101t-210.5 29q-133 0 -256 -44q-65 -24 -145 -86l-27 24q99 127 199.5 187t246.5 81v45q0 97 -25 158.5t-91 129t-139 110.5q-47 27 -132 54v41q81 30 199 110l188 126q0 129 -18 184.5t-70 92.5t-116 37q-39 0 -71 -12t-79 -45l-33 24q78 80 140.5 108.5
t154.5 28.5q103 0 171.5 -41t102.5 -112q20 -43 23 -124zM962 1337l-106 -71v-553l391 261zM810 1234l-120 -84v-866q60 -9 120 -27v977zM485 1010l-222 -150q63 -30 104.5 -60t117.5 -100v310z" />
    <glyph glyph-name="S" unicode="S" horiz-adv-x="1729" 
d="M643 1495l453 -151l33 59q18 32 25.5 39.5t17.5 7.5t16.5 -7t6.5 -16q0 -14 -24 -55l-211 -365l165 6q78 3 181.5 -22t178 -77.5t117 -124t42.5 -157.5q0 -158 -132.5 -310.5t-471.5 -321.5q-117 48 -272 101q-286 -137 -467 -137q-129 0 -198.5 56.5t-69.5 130.5
q0 79 84 144.5t249 65.5q65 0 162 -14l75 136l-141 -6q-52 -1 -140 14.5t-144.5 50.5t-84.5 86t-28 107q0 89 63 158q40 44 132 79l-1 12q0 93 82.5 213.5t301.5 297.5zM1005 1184q-157 78 -245 104.5t-155 26.5q-94 0 -153 -53t-59 -124q0 -70 50.5 -115t152.5 -45
q68 0 306 25zM792 813q-129 -16 -250 -16q-136 0 -193 32t-85 100q-72 -46 -72 -114q0 -62 56 -102q74 -52 253 -52q83 0 211 11zM768 676q239 27 332 27q127 0 194 -57.5t67 -137.5q0 -70 -65.5 -136t-275.5 -157l198 -61q131 81 202 175t71 207q0 74 -44.5 145.5
t-136.5 114t-212 42.5q-97 0 -248 -20zM574 339q99 -20 161.5 -37t222.5 -68q222 104 222 207q0 32 -28.5 58t-72.5 26q-54 0 -133 -12q-220 -30 -289 -30zM701 122q-256 77 -415 77q-82 0 -130 -36q-33 -24 -33 -59q0 -37 33 -59q52 -36 151 -36q152 0 394 113z" />
    <glyph glyph-name="T" unicode="T" horiz-adv-x="1622" 
d="M1545 1495l37 -26q-21 -97 -57.5 -153t-107 -88.5t-162.5 -32.5q-49 0 -119 6v-1011q152 46 242 118.5t167 208.5l37 -18q-44 -134 -102 -215q-93 -131 -240 -207.5t-340 -76.5q-188 0 -352 72q-95 42 -174 118t-129.5 184t-50.5 245q0 138 55 264t162 241q68 72 192 159
l-126 7q-70 4 -155 -29.5t-132.5 -89.5t-82.5 -167l-37 22q34 142 88 221q72 105 190 162.5t269 57.5q105 0 371 -44t366 -44q67 0 102.5 20.5t88.5 95.5zM715 1273l-53 5q-134 -115 -197 -230q-85 -155 -85 -319q0 -280 230 -457q73 61 89 99t16 155v747zM1090 1210
q-95 13 -168 28v-598q0 -105 -8.5 -133.5t-39.5 -64.5q-56 -62 -224 -196q84 -41 136 -55q90 -24 173 -24q44 0 131 11v1032z" />
    <glyph glyph-name="U" unicode="U" horiz-adv-x="1728" 
d="M1624 1462l31 -30q-86 -106 -106.5 -155t-20.5 -144v-712q0 -148 25 -187t59 -39q26 0 55 30l15 -59l-211 -166q-87 54 -115.5 104.5t-36.5 172.5q-159 -151 -300 -214t-307 -63q-305 0 -468 220q-122 163 -122 379q0 160 70 298.5t211 267.5q96 87 257 184
q-126 -31 -189 -31q-45 0 -101 5t-93 5q-84 0 -132.5 -51t-48.5 -141q0 -33 6 -83h-42q-12 71 -12 116q0 159 83 252.5t196 93.5q32 0 60 -6q18 -4 119.5 -40.5t182.5 -36.5q72 0 136 27q33 14 76 56h45v-560q103 -56 195 -56q48 0 85.5 11.5t92.5 44.5v289l-113 83
l-115 -125l-33 31l242 269l213 -153zM901 1416q-63 -67 -80.5 -120t-17.5 -209v-464q0 -76 -11 -113q-15 -47 -55 -93q-58 -67 -208 -176q72 -49 135 -69t149 -20q42 0 88 7v1257zM489 273q67 71 87.5 133t20.5 221v297q0 115 6.5 150t32.5 80q45 78 155 206
q-159 -92 -253.5 -177t-155.5 -214t-61 -286q0 -140 52 -254q36 -78 116 -156zM1319 901q-60 -30 -98 -40t-85 -10q-88 0 -190 50v-233q107 47 193 47q82 0 180 -47v233zM1319 619q-100 50 -181 50q-49 0 -90.5 -11.5t-101.5 -44.5v-446q100 21 182.5 59.5t190.5 117.5v275z
" />
    <glyph glyph-name="V" unicode="V" horiz-adv-x="1493" 
d="M623 1185l625 330q174 -253 174 -526q0 -205 -90 -375q-122 -231 -492 -614q-65 43 -113 59.5t-100 16.5q-61 0 -116 -15.5t-140 -60.5l-30 26q81 151 108.5 236.5t27.5 155.5q0 106 -59 171t-135 65q-35 0 -55.5 -10.5t-39.5 -38.5l-33 24q24 68 69 100.5t105 32.5
q38 0 72 -12.5t91 -52.5q-10 338 -139 534q-72 110 -155 110q-42 0 -68 -29q-35 -39 -52 -139l-39 12q6 116 34 185t82.5 107t115.5 38q92 0 185 -74t167 -256zM638 1138q34 -110 46 -211q135 -43 244 -43q140 0 293 68q-8 108 -42 208t-106 211zM1221 902
q-91 -38 -155.5 -52t-139.5 -14q-114 0 -239 44q4 -48 4 -72q0 -97 -32 -222q60 19 114 28t101 9q132 0 275 -65q66 190 72 344zM1130 516q-88 38 -140.5 50t-116.5 12q-50 0 -107 -10.5t-121 -32.5q-32 -106 -71 -187q-65 -134 -156 -271q108 82 184 113q100 40 192 40
q66 0 152 -27q70 92 109 159t75 154z" />
    <glyph glyph-name="W" unicode="W" horiz-adv-x="2068" 
d="M1284 1191l488 324q116 -166 166 -300t50 -262q0 -129 -42 -238q-68 -177 -196 -335t-373 -380q-47 56 -100.5 80.5t-101.5 24.5q-65 0 -137.5 -21.5t-198.5 -83.5q-47 53 -89 72q-56 26 -134 26q-77 0 -143.5 -20.5t-163.5 -77.5l-29 22q159 276 159 444q0 97 -57 159.5
t-127 62.5q-41 0 -85 -34l-29 22q57 117 171 117q38 0 77.5 -19t79.5 -58q-6 361 -122 553q-58 97 -134 97q-36 0 -64 -31t-42 -123l-36 10q7 139 64.5 216t157.5 77q92 0 181.5 -76t146.5 -248l484 324q98 -122 179 -324zM633 1144q25 -90 33 -202q71 -41 120 -55.5
t106 -14.5t107.5 14.5t123.5 55.5q-21 124 -54.5 211.5t-109.5 210.5zM1297 1151q17 -46 23.5 -81t14.5 -128q74 -38 120 -50.5t99 -12.5q54 0 102 13.5t116 49.5q-9 97 -36 175q-42 120 -116 245zM1123 894q-81 -41 -130.5 -55t-106.5 -14q-51 0 -105.5 15.5t-112.5 46.5
v-26q0 -132 -51 -293q59 25 110 37.5t94 12.5q66 0 122 -18t132 -65q50 155 50 300q0 20 -2 59zM1772 887q-76 -33 -121.5 -43.5t-98.5 -10.5q-50 0 -104 13.5t-111 40.5q-3 -91 -16 -149t-53 -153q46 17 88.5 25t80.5 8q75 0 136 -19.5t130 -65.5q70 190 70 327q0 9 -1 27z
M1683 483q-67 49 -121.5 68.5t-123.5 19.5q-46 0 -96 -11t-104 -33q-51 -94 -121.5 -185t-205.5 -230q157 84 260 116t194 32q70 0 157 -34q95 123 161 257zM1059 483q-75 51 -123 68.5t-105 17.5q-51 0 -110 -16t-126 -48q-45 -114 -93 -203t-126 -199q151 80 252 110.5
t196 30.5q45 0 105 -9q78 120 130 248z" />
    <glyph glyph-name="X" unicode="X" horiz-adv-x="1386" 
d="M787 925l269 590q128 -90 296 -166l-85 -161l-258 112l-193 -439h438l-67 -149h-299l178 -374q53 -113 77 -140q35 -40 59 -40q15 0 52 33l65 57l33 -34l-241 -214q-93 44 -127.5 79t-81.5 135l-207 435l-304 -649q-133 92 -316 160l80 178l292 -114l222 488h-431l69 149
h288l-148 312q-44 93 -61 116q-26 35 -65.5 55t-79.5 20q-47 0 -89.5 -27.5t-88.5 -90.5l-27 31q34 115 112 176.5t173 61.5q103 0 171.5 -53.5t134.5 -193.5z" />
    <glyph glyph-name="Y" unicode="Y" horiz-adv-x="1622" 
d="M122 1391l-21 38q70 58 113.5 75.5t101.5 17.5q81 0 152 -32.5t111 -85.5q31 -41 52 -123q147 109 250 151t198 42q178 0 308.5 -148t130.5 -409q0 -149 -49.5 -282t-147 -218.5t-228.5 -123t-224 -37.5l-424 9q-96 0 -179.5 -31.5t-121.5 -84.5t-38 -115
q0 -79 58.5 -135t141.5 -56q45 0 93 13t183 71q195 85 323 85q132 0 209 -62q58 -48 58 -125q0 -46 -26.5 -73.5t-65.5 -27.5q-33 0 -56.5 25t-23.5 64q0 31 22 70q14 24 14 34q0 14 -11 23q-17 12 -44 12q-34 0 -73 -14t-142 -73q-146 -83 -230 -112t-153 -29
q-135 0 -229 89t-94 209q0 116 89.5 198.5t277.5 93.5q1 21 1 31q0 114 -49 198t-128 125q-50 27 -129 28v36q44 7 74 7q65 0 118 -18t113 -61q2 29 2 51q0 122 -75.5 202t-179.5 80q-24 0 -62 -5v39q65 34 127 34q46 0 85.5 -13t102.5 -53q1 52 1 88q0 191 -59 267t-142 76
q-51 0 -105 -35zM789 1048q62 -55 113 -76t115 -21q70 0 128 24.5t132 90.5q-30 93 -64 143q-52 76 -120.5 113.5t-142.5 37.5q-68 0 -161 -43v-269zM742 1293q-57 -34 -111 -73v-906q37 -1 56 -1l55 1v979zM789 685q76 51 131.5 70.5t118.5 19.5q64 0 119.5 -19.5
t129.5 -70.5q16 87 16 153q0 67 -16 175q-85 -64 -147.5 -87.5t-133.5 -23.5q-54 0 -103.5 18.5t-114.5 65.5v-301zM789 314q145 3 236.5 36.5t149.5 98t102 184.5q-73 55 -124.5 74t-114.5 19q-64 0 -119.5 -20t-129.5 -73v-319z" />
    <glyph glyph-name="Z" unicode="Z" horiz-adv-x="1260" 
d="M1211 1515l30 -25q-89 -120 -150.5 -216t-214.5 -361h310l-38 -77h-318q-31 -54 -68 -109h331l-33 -74h-351q-69 -98 -145.5 -181t-348.5 -339q297 128 562 128q87 0 161.5 -19t164.5 -64l108 129l30 -29l-227 -278q-129 62 -233 88t-227 26q-122 0 -235 -26.5
t-255 -87.5l-26 35q117 130 191.5 235t239.5 383h-308l36 74h322l70 109h-339l37 77h358q80 104 159 188q107 114 289 286q-149 -74 -262 -103t-239 -29q-100 0 -184 21q-62 16 -145 61l-125 -150l-35 31l253 297q126 -63 224.5 -89t201.5 -26q100 0 196.5 25t232.5 90z" />
    <glyph glyph-name="bracketleft" unicode="[" horiz-adv-x="575" 
d="M531 -297v-48h-413v1822h413v-49h-224v-1725h224z" />
    <glyph glyph-name="backslash" unicode="\" horiz-adv-x="1146" 
d="M963 -68l-911 1458h131l910 -1458h-130z" />
    <glyph glyph-name="bracketright" unicode="]" horiz-adv-x="575" 
d="M45 -297h225v1725h-225v49h413v-1822h-413v48z" />
    <glyph glyph-name="asciicircum" unicode="^" horiz-adv-x="1190" 
d="M150 666l411 718h82l404 -718h-159l-295 512l-290 -512h-153z" />
    <glyph glyph-name="underscore" unicode="_" horiz-adv-x="1024" 
d="M-12 -154h1048v-102h-1048v102z" />
    <glyph glyph-name="grave" unicode="`" horiz-adv-x="682" 
d="M387 1141l-267 373h232l91 -373h-56z" />
    <glyph glyph-name="a" unicode="a" horiz-adv-x="918" 
d="M784 1023l36 -14q-54 -84 -68.5 -128.5t-14.5 -120.5v-426q0 -106 16.5 -132.5t39.5 -26.5q12 0 25 6q8 5 47 36l22 -33l-223 -184q-77 60 -103 107.5t-29 132.5l-304 -240q-171 140 -171 276q0 91 37 171q49 105 169 245l-120 256l14 28q39 -4 58 -4q118 0 208 94
q73 -43 159.5 -69t132.5 -26q21 0 32 7.5t37 44.5zM532 832l-342 105l122 -258l220 -103v256zM532 535l-242 113q-56 -122 -56 -214q0 -162 147 -267l151 122v246z" />
    <glyph glyph-name="b" unicode="b" horiz-adv-x="918" 
d="M468 1433l8 -26q-77 -46 -101.5 -90.5t-24.5 -145.5v-352l318 247q89 -61 120 -119.5t31 -160.5v-603q-123 -48 -204 -95q-62 -37 -118 -88q-85 70 -169.5 108t-250.5 75v18q43 30 54 70q17 59 17 273v579q0 113 -23 163.5t-87 94.5l18 26q76 -33 104 -50.5t54 -45.5
q103 74 146 93.5t108 28.5zM350 275l262 -103v563q0 78 -14.5 107.5t-69.5 66.5l-178 -137v-497z" />
    <glyph glyph-name="c" unicode="c" horiz-adv-x="682" 
d="M394 1066l260 -148l-106 -157l-196 113v-637l196 -89l106 75l10 -42l-248 -181q-96 54 -164 79.5t-167 44.5v24q35 24 46 52q16 39 16 122v569q125 57 247 175z" />
    <glyph glyph-name="d" unicode="d" horiz-adv-x="918" 
d="M52 1407l679 -467q16 37 35.5 56t59.5 36v-41q-20 -27 -26 -49t-6 -90v-673q-127 -48 -189 -83.5t-134 -95.5q-118 77 -209 112t-196 48v19q36 31 46.5 62.5t10.5 130.5v524q137 38 194 86l-265 181v244zM590 795l-205 142q-28 -23 -57 -40v-618l262 -116v632z" />
    <glyph glyph-name="e" unicode="e" horiz-adv-x="811" 
d="M504 1066l282 -329l-448 -314v-182l232 -92l157 107l22 -30l-324 -226q-99 53 -163 76t-182 48v25q34 20 45.5 49.5t11.5 127.5v572q94 34 156 62q45 21 211 106zM352 951l-14 -7v-453l263 184z" />
    <glyph glyph-name="f" unicode="f" horiz-adv-x="575" 
d="M544 1385l-31 -167l-183 43v-241h155v-112h-155v-671l113 -85l78 63l23 -28l-232 -187q-123 112 -253 152l-6 24q36 23 50 48q24 41 24 99v585h-94v112h94v241q150 102 226 172z" />
    <glyph glyph-name="g" unicode="g" 
d="M509 1066l311 -146l186 94v-225l-180 35v-454q0 -110 13 -149q17 -51 71 -118q87 -111 87 -159t-45.5 -92t-242.5 -136q-67 24 -128 35.5t-116 11.5q-132 0 -305 -47l-14 34l236 276l-236 170v724q198 42 363 146zM623 826l-274 94v-655l149 -108l125 150v519zM322 -103
q130 21 210 21q72 0 145.5 -19t148.5 -58l41 26q-135 126 -183 204t-61 170z" />
    <glyph glyph-name="h" unicode="h" horiz-adv-x="918" 
d="M466 1433l10 -24q-71 -46 -97 -98t-26 -165v-326l309 246q99 -64 129 -123.5t30 -202.5v-453q0 -130 -27 -190q-43 -98 -159 -184q-152 -114 -387 -197l-14 37q191 79 266 144t98 138q17 55 17 286v419q0 70 -14 97q-21 37 -77 73l-171 -139v-557l71 -71l-176 -143
l-178 143l79 79v910q0 124 -22 170t-87 83l11 24q53 -15 85 -33.5t84 -64.5q61 58 117 85t129 37z" />
    <glyph glyph-name="i" unicode="i" horiz-adv-x="575" 
d="M335 1408h127l-138 -216h-40zM259 1066l178 -147l-79 -77v-544q0 -86 16 -112t33 -26q12 0 22 5q14 7 58 40l24 -31l-227 -174q-80 57 -103 107.5t-23 176.5v558l-75 77z" />
    <glyph glyph-name="j" unicode="j" horiz-adv-x="575" 
d="M388 1413h130l-136 -213h-45zM72 887l234 179q49 -58 89.5 -93t116.5 -86q-61 -87 -88 -165.5t-27 -174.5q0 -93 24 -243q17 -100 17 -149q0 -106 -45.5 -192.5t-132.5 -155.5q-51 -42 -157 -91l-17 38q89 58 131.5 134.5t42.5 159.5q0 57 -26 180q-41 190 -41 303
q0 80 13.5 146t48.5 153q-34 45 -85 82l-73 -54z" />
    <glyph glyph-name="k" unicode="k" horiz-adv-x="1004" 
d="M504 1433v-26q-76 -50 -102 -105.5t-26 -179.5v-345l298 289l203 -224l-232 -203q79 -56 118.5 -121.5t61.5 -192t35 -145.5t24 -19q12 0 66 41l19 -32l-233 -170q-41 42 -61 89t-30 137l-283 -226q-61 58 -117.5 91t-140.5 60v19q46 31 59 64.5t13 168.5v727
q0 86 -8 120q-11 50 -32.5 77.5t-69.5 50.5l15 29q60 -22 90.5 -40.5t75.5 -60.5q65 62 123.5 90.5t133.5 36.5zM557 901l-181 -175v-267l329 281zM376 407v-173l118 -82l146 120q-26 168 -146 239z" />
    <glyph glyph-name="l" unicode="l" horiz-adv-x="575" 
d="M502 1433v-26q-79 -41 -111.5 -100.5t-32.5 -180.5v-889l114 -85l44 36l25 -36l-200 -152q-91 79 -136 105t-119 47v22q28 17 43.5 43t21.5 61q2 12 3 120v714q0 91 -7 126.5t-28 68t-71 72.5l16 20q91 -26 163 -106q75 79 135.5 108t139.5 32z" />
    <glyph glyph-name="m" unicode="m" horiz-adv-x="1493" 
d="M1392 1008l29 -27q-57 -50 -76.5 -80t-25.5 -60t-6 -123v-416q0 -82 17 -109t32 -27q21 0 73 40l23 -29l-222 -177q-74 58 -96 96q-32 56 -32 119v603l-101 87l-160 -148v-542l76 -81l-175 -134l-177 134l73 81v497q0 87 -13 112q-18 34 -87 81l-158 -133v-557l77 -81
l-176 -134l-179 134l78 81v535q0 83 -23 120q-18 28 -33 28q-18 0 -73 -41l-22 33l218 176q68 -48 92.5 -78.5t34.5 -66.5q6 -26 6 -103l298 248q98 -78 128 -129t35 -130l281 259l164 -153z" />
    <glyph glyph-name="n" unicode="n" 
d="M682 1066l164 -153l97 94l28 -27q-70 -64 -85 -97q-20 -44 -20 -121v-475q0 -66 21 -98q13 -21 29 -21q14 0 66 39l24 -31l-215 -176q-83 63 -106.5 111.5t-23.5 156.5v551l-109 94l-162 -129v-569l72 -72l-177 -143l-178 143l78 72v511q0 109 -22 147q-15 26 -34 26
q-20 0 -60 -31l-24 28l213 170q88 -62 110 -98t22 -100v-34z" />
    <glyph glyph-name="o" unicode="o" horiz-adv-x="918" 
d="M794 920v-748q-150 -61 -217 -100q-51 -29 -98 -72q-145 88 -240 122q-72 26 -163 30l-10 20q38 32 48 58q14 34 14 115v549q183 61 313 172q142 -94 353 -146zM330 269l261 -107v636q-123 57 -174 75q-36 13 -87 22v-626z" />
    <glyph glyph-name="p" unicode="p" horiz-adv-x="918" 
d="M29 912l203 154q81 -56 107.5 -104t26.5 -132l259 236q131 -95 175 -163q28 -44 28 -131v-560q-131 -59 -295 -212q-59 38 -167 88v-71q0 -125 25 -179t90 -95l-13 -27q-111 39 -166 75q-39 26 -70 71q-72 -64 -136 -87l-13 20q43 41 60.5 84.5t17.5 120.5v146
q-56 11 -116 11q-5 0 -16 -1v84q72 17 132 23v498q0 81 -21 112t-43 31q-17 0 -45 -26zM366 778v-516q117 -24 159.5 -36.5t99.5 -38.5v561q0 46 -3.5 54.5t-29.5 30.5q-58 50 -90 72z" />
    <glyph glyph-name="q" unicode="q" horiz-adv-x="918" 
d="M821 896l7 -23q-40 -21 -52 -49.5t-12 -129.5v-687q0 -89 15 -131t59 -83l-17 -21q-71 28 -133 90q-41 -56 -93 -89t-142 -57l-11 20q73 63 94 112t21 152v225l-281 -225q-88 59 -121 97.5t-45 79t-12 131.5v588q195 64 314 170q144 -103 245 -142q74 -28 164 -28z
M297 896v-538q0 -92 11.5 -112.5t99.5 -88.5l149 117v495z" />
    <glyph glyph-name="r" unicode="r" horiz-adv-x="811" 
d="M626 1066l151 -181l-151 -134l-126 159l-99 -90v-583l114 -82l103 82l23 -32l-256 -205q-82 73 -137.5 105t-121.5 50v22q44 31 57.5 62.5t13.5 120.5v408q0 77 -17.5 102.5t-38.5 25.5q-23 0 -63 -40l-24 29l211 181q85 -65 116 -113q20 -30 20 -83z" />
    <glyph glyph-name="s" unicode="s" horiz-adv-x="926" 
d="M589 695l231 -121v-421q-84 -8 -152 -41t-154 -112q-74 44 -128.5 61t-115.5 17q-94 0 -167 -57q-27 -21 -39 -21q-11 0 -22 11t-11 22q0 12 21 32q12 12 41 46l91 113l129 171l-219 118v373q103 32 161.5 71.5t112.5 108.5q128 -54 206 -76q56 -15 107 -15q56 0 87 24.5
t31 51.5q0 18 -20 36q-39 35 -39 68q0 31 17 49.5t38 18.5q28 0 50.5 -25.5t22.5 -67.5q0 -43 -18 -84t-69 -106zM296 626l137 -71l218 290q-67 -19 -116 -19q-123 0 -239 82v-282zM468 535l-241 -323q44 15 82 22t69 7q115 0 239 -76v290z" />
    <glyph glyph-name="t" unicode="t" horiz-adv-x="575" 
d="M43 956l279 345h29l-10 -276h201v-113h-201v-673l112 -83l64 50l25 -30l-220 -176q-113 115 -256 156v20q40 27 53 56q17 37 17 107v573h-93v44z" />
    <glyph glyph-name="u" unicode="u" 
d="M763 1066l179 -148l-81 -74v-525q0 -91 25 -130q16 -27 35 -27q14 0 54 33l26 -32l-211 -163q-80 56 -104.5 100.5t-26.5 141.5q-155 -100 -316 -242q-97 76 -127 133.5t-30 151.5v494q0 52 -8 68q-14 28 -38 28q-18 0 -54 -31l-27 28l222 194l181 -148l-74 -68v-531
q0 -59 15 -86.5t73 -69.5l183 135v546l-71 74z" />
    <glyph glyph-name="v" unicode="v" horiz-adv-x="918" 
d="M334 822l307 244q102 -80 133 -138.5t31 -151.5v-600q-86 -21 -160.5 -59.5t-171.5 -116.5q-109 86 -201 121t-206 38v25q38 23 51.5 53.5t13.5 115.5v447q0 35 -7 55t-39 62.5t-44.5 76.5t-12.5 77q0 79 47.5 140.5t179.5 133.5l21 -27q-103 -75 -103 -143q0 -25 10 -43
q12 -24 60 -76t71 -108q17 -43 20 -126zM334 768v-485l265 -119v560q0 73 -18.5 108.5t-78.5 72.5z" />
    <glyph glyph-name="w" unicode="w" horiz-adv-x="1386" 
d="M839 825l297 241q93 -67 121 -119q39 -70 39 -163v-606q-105 -33 -177 -73t-146 -105q-169 107 -282 107q-106 0 -212 -107q-99 82 -189.5 118.5t-197.5 42.5v24q45 18 63.5 51.5t18.5 130.5v379q0 89 -5.5 108.5t-32.5 50.5q-43 50 -58 85.5t-15 81.5q0 84 52 147.5
t183 127.5l18 -26q-108 -75 -108 -146q0 -25 12 -47q6 -11 73 -85q45 -49 69 -109q14 -36 19 -103l291 235q80 -53 118.5 -110t48.5 -131zM381 781v-512l252 -105v545q0 86 -18 121t-82 76zM839 774v-500l254 -107v556q0 74 -14.5 101.5t-83.5 80.5z" />
    <glyph glyph-name="x" unicode="x" 
d="M735 1066l205 -102l-83 -175l-172 84l-98 -206l98 -207q65 -130 111.5 -197t76.5 -84q17 -10 31 -10q20 0 57 30l21 -29l-191 -170q-67 23 -119 83q-83 95 -198 348l-205 -431l-210 107l86 179l174 -92l134 279q-97 218 -205 353q-55 70 -97 70q-29 0 -73 -38l-25 31
l216 177q84 -44 134 -101q67 -76 162 -255z" />
    <glyph glyph-name="y" unicode="y" horiz-adv-x="918" 
d="M54 891l210 175q86 -58 111.5 -101t25.5 -118v-22l303 241q155 -163 155 -349q0 -100 -51 -199.5t-160 -189t-352 -234.5q-106 -64 -127 -81q-45 -35 -64 -68q-14 -24 -14 -54q0 -51 50.5 -94.5t133.5 -43.5q60 0 99 21q19 10 37 42.5t31 42.5t31 10q20 0 32 -11t12 -29
q0 -32 -47 -63q-72 -50 -182 -50q-115 0 -177 54.5t-62 129.5q0 74 69 144q33 34 41 48q22 38 30 70.5t8 91.5v478q0 100 -23 136q-18 28 -39 28q-17 0 -44 -26q-4 -4 -13 -12zM401 779v-568q141 102 200.5 212.5t59.5 210.5q0 135 -110 264z" />
    <glyph glyph-name="z" unicode="z" horiz-adv-x="682" 
d="M37 869l294 197l134 -129q31 -30 49 -39t39 -9q12 0 30 8l11 -18l-299 -270h28q125 0 205.5 -77t80.5 -185q0 -63 -33 -122t-99 -107q-48 -35 -171.5 -99t-152.5 -95.5t-29 -69.5q0 -36 24 -61t63 -25q14 0 41 7q14 3 24 3q13 0 21.5 -8t8.5 -19q0 -14 -11 -23
q-15 -12 -43 -12q-75 0 -120 40.5t-45 100.5q0 47 29 91t119.5 114.5t116.5 112.5q38 63 38 127q0 69 -51 118t-130 49q-57 0 -134 -44l-21 20l336 302l-197 178l-130 -84z" />
    <glyph glyph-name="braceleft" unicode="{" horiz-adv-x="811" 
d="M720 1387v-45q-100 -19 -147.5 -70.5t-47.5 -117.5q0 -67 24 -166.5t24 -173.5q0 -68 -40.5 -138.5t-116.5 -120.5q-53 -35 -169 -66q124 -39 180 -77q74 -51 111 -120t37 -131q0 -60 -24.5 -160t-24.5 -174q0 -71 45.5 -122.5t148.5 -71.5v-47h-35q-177 0 -293 121
q-85 89 -85 196q0 69 31 189q23 89 23 159q0 79 -50 134.5t-146 71.5v61q96 16 146 74t50 141q0 68 -22 153q-31 119 -31 181q0 65 39 132t98 109t129 61q54 15 146 18z" />
    <glyph glyph-name="bar" unicode="|" horiz-adv-x="1159" 
d="M483 1426h186v-1703h-186v1703z" />
    <glyph glyph-name="braceright" unicode="}" horiz-adv-x="811" 
d="M91 -414v46q99 19 147 70.5t48 117.5t-24 165.5t-24 173.5q0 69 40 139.5t117 120.5q53 34 169 66q-124 39 -180 77q-75 51 -112 120t-37 131q0 60 24.5 160t24.5 173q0 72 -45 123t-148 72v46l35 1q177 0 293 -121q85 -89 85 -197q0 -68 -31 -188q-23 -89 -23 -159
q0 -79 49.5 -135t146.5 -71v-61q-97 -16 -146.5 -74t-49.5 -141q0 -68 22 -153q30 -119 30 -181q0 -66 -38.5 -132.5t-97.5 -108.5t-129 -61q-54 -15 -146 -19z" />
    <glyph glyph-name="asciitilde" unicode="~" horiz-adv-x="1366" 
d="M1169 844h63q-7 -171 -86 -257t-194 -86q-56 0 -117.5 17.5t-259.5 100.5q-142 60 -206 60q-68 0 -112.5 -41.5t-59.5 -135.5h-64q9 177 85 260t186 83q58 0 111 -15q100 -27 273 -103q96 -42 144 -55q30 -8 65 -8q68 0 115 46t57 134z" />
    <glyph glyph-name="Adieresis" unicode="&#xc4;" horiz-adv-x="1493" 
d="M1389 1515l19 -46q-72 -35 -106.5 -69.5t-48.5 -77t-14 -126.5q0 -27 1 -72l17 -747q2 -123 26 -161q17 -27 41 -27q29 0 90 58l29 -37l-186 -159l-62 -51q-79 37 -112.5 98t-37.5 195l-387 -293q-323 213 -440 213q-29 0 -49 -18q-15 -13 -15 -37q0 -26 19 -57
q25 -42 25 -55q0 -19 -14 -32.5t-34 -13.5q-25 0 -40 20q-22 27 -22 70q0 48 27.5 107.5t81.5 129.5q11 15 20 28l143 195q-145 109 -203.5 209t-58.5 224q0 144 73.5 267t221 194t303.5 71q239 0 461 -166q54 57 104 93.5t128 72.5zM897 1283q-126 62 -251 62
q-133 0 -250 -58.5t-175 -151t-58 -189.5q0 -205 222 -363l334 457q-75 41 -135 41q-83 0 -136 -78q-10 -16 -20 -16q-6 0 -11.5 6t-5.5 15q0 31 31.5 86t93 89t129.5 34q70 0 159 -34zM1026 1180q-29 32 -39 41q-7 7 -50 37l-437 -596h538zM392 516l-90 -125l508 -219
l236 174l-4 170h-650zM1241 1706l-109 109l109 110l110 -110zM842 1706l-110 109l110 110l109 -110z" />
    <glyph glyph-name="Aring" unicode="&#xc5;" horiz-adv-x="1493" 
d="M1389 1515l19 -46q-72 -35 -106.5 -69.5t-48.5 -77t-14 -126.5q0 -27 1 -72l17 -747q2 -123 26 -161q17 -27 41 -27q29 0 90 58l29 -37l-186 -159l-62 -51q-79 37 -112.5 98t-37.5 195l-387 -293q-323 213 -440 213q-29 0 -49 -18q-15 -13 -15 -37q0 -26 19 -57
q25 -42 25 -55q0 -19 -14 -32.5t-34 -13.5q-25 0 -40 20q-22 27 -22 70q0 48 27.5 107.5t81.5 129.5q11 15 20 28l143 195q-145 109 -203.5 209t-58.5 224q0 144 73.5 267t221 194t303.5 71q239 0 461 -166q54 57 104 93.5t128 72.5zM897 1283q-126 62 -251 62
q-133 0 -250 -58.5t-175 -151t-58 -189.5q0 -205 222 -363l334 457q-75 41 -135 41q-83 0 -136 -78q-10 -16 -20 -16q-6 0 -11.5 6t-5.5 15q0 31 31.5 86t93 89t129.5 34q70 0 159 -34zM1026 1180q-29 32 -39 41q-7 7 -50 37l-437 -596h538zM392 516l-90 -125l508 -219
l236 174l-4 170h-650zM1091 1987q70 0 118.5 -49t48.5 -118t-49 -118t-118 -49t-118 49t-49 118t48.5 118t118.5 49zM1091 1929q-46 0 -78 -32t-32 -77t32.5 -77.5t77.5 -32.5t77.5 32.5t32.5 77.5t-32 77t-78 32z" />
    <glyph glyph-name="Ccedilla" unicode="&#xc7;" horiz-adv-x="1493" 
d="M579 1370l24 -28q-149 -101 -222 -216q-94 -148 -94 -322q0 -211 139 -390q60 49 72 82.5t12 183.5v448l428 357q150 -59 236 -76.5t202 -17.5h23l16 -36l-165 -158q-167 18 -377 122l11 -1142l38 -1q144 0 262.5 49t245.5 159l30 -29q-93 -128 -182.5 -199
t-215.5 -113.5t-250 -42.5q-184 0 -346.5 89t-254.5 255t-92 342q0 217 130 402q102 145 330 282zM828 1325l-117 -101v-456q0 -85 -9 -113q-10 -37 -46 -79q-73 -85 -204 -194q80 -89 171.5 -136.5t214.5 -63.5zM627 -103l72 79q60 24 101 24q73 0 119 -44.5t46 -107.5
q0 -76 -63.5 -128.5t-200.5 -52.5q-74 0 -145 13l16 33q72 -6 85 -6q67 0 106.5 32t39.5 70q0 36 -34.5 64.5t-95.5 28.5q-16 0 -46 -5z" />
    <glyph glyph-name="Eacute" unicode="&#xc9;" horiz-adv-x="1493" 
d="M578 1369l20 -31q-166 -106 -244.5 -243.5t-78.5 -294.5q0 -202 138 -386q58 48 70 80.5t12 167.5v460l437 373q122 -59 205.5 -82t164.5 -23q42 0 104 9l25 -30l-345 -349h270l-109 -192h-380v-648l64 -3q142 0 282 71q106 53 218 166l24 -38q-116 -181 -256 -269
q-171 -107 -390 -107q-345 0 -545 238q-159 189 -159 443q0 158 65 294.5t183 244.5q84 76 225 149zM821 1320l-122 -102v-464q0 -77 -8.5 -107t-39.5 -65q-66 -78 -212 -199q87 -92 172.5 -137t209.5 -62v1136zM1204 1207q-105 15 -172.5 36t-164.5 69v-447zM695 1591h-55
l90 373h233z" />
    <glyph glyph-name="Ntilde" unicode="&#xd1;" horiz-adv-x="2068" 
d="M1316 1515q175 -43 273 -106q132 -85 200.5 -208t68.5 -262q0 -98 -33.5 -195t-109.5 -214q-27 -42 -262 -355q120 53 241 53q52 0 88.5 -7.5t55.5 -7.5q17 0 31.5 15.5t64.5 111.5l48 -18l-172 -322q-136 46 -225 46q-101 0 -166 -39t-126 -136l-40 20q34 102 122 254
q145 249 217 408q-91 60 -166 85.5t-159 25.5q-70 0 -131.5 -17.5t-144.5 -63.5v-176q0 -161 -16.5 -230t-74 -140.5t-148 -119t-187.5 -47.5q-39 0 -77 8q-22 4 -125.5 34.5t-116.5 33.5q-28 5 -60 5q-47 0 -83.5 -13t-86.5 -47l-28 25q102 181 277 181q71 0 184 -25
q69 -15 94 -15q54 0 93 43.5t39 112.5q0 88 -60.5 148t-148.5 60q-58 0 -124 -49l-28 25q45 56 89 80.5t99 24.5q32 0 66.5 -11t71.5 -33q-17 88 -60 135q-75 82 -188 82q-48 0 -79 -10q-24 -8 -60 -35l-24 35q54 55 99 76.5t99 21.5q46 0 85 -13.5t105 -57.5
q0 81 -26.5 128.5t-93 86.5t-129.5 39q-57 0 -115 -40l-24 33q45 49 84 67q49 25 106 25q49 0 91 -14.5t107 -57.5v223zM991 977q95 -55 164 -76.5t144 -21.5q85 0 161.5 27t178.5 96q-56 143 -190 229.5t-301 86.5q-71 0 -157 -26v-315zM945 1278l-122 -60v-861
q0 -150 -30 -214t-116 -123q103 8 149 41q68 48 93.5 117.5t25.5 237.5v862zM991 637q88 42 149.5 58t132.5 16q90 0 167.5 -26t167.5 -87q28 71 42 136t14 124q0 42 -11 95q-110 -70 -187.5 -96t-161.5 -26q-73 0 -144 20.5t-169 72.5v-287zM1000 1652h-41q15 109 53 161
q59 83 148 83q26 0 62 -10q21 -5 83 -33q108 -49 159 -49q32 0 58 20t44 71h37q-12 -124 -70 -183t-139 -59q-61 0 -158 44t-139 44q-31 0 -55.5 -20t-41.5 -69z" />
    <glyph glyph-name="Odieresis" unicode="&#xd6;" horiz-adv-x="1729" 
d="M888 1495q174 -18 272 -50q148 -47 259.5 -133.5t174 -204.5t62.5 -256q0 -128 -66 -252t-226.5 -279t-323.5 -237.5t-319 -82.5q-167 0 -323 83t-241 228.5t-85 321.5q0 101 21 194.5t73 216.5q99 49 232 135q71 47 359 228q58 36 131 88zM812 1296q-68 4 -134 6v-591
q0 -96 -13 -134t-48 -79l-185 -178q94 -80 177.5 -113.5t202.5 -41.5v1131zM855 1029q72 -62 136.5 -89.5t140.5 -27.5q70 0 129.5 27.5t125.5 89.5q-57 74 -106 110q-90 65 -193.5 102t-232.5 52v-264zM473 1171q-85 -63 -122 -106q-49 -57 -82 -139t-33 -180
q0 -212 163 -395q46 43 60 85.5t14 166.5v568zM855 612q71 70 132.5 98t142.5 28q85 0 153 -30t146 -104q27 99 27 172q0 67 -10 117q-8 37 -33 92q-87 -70 -151 -95.5t-142 -25.5q-71 0 -130 23.5t-135 84.5v-360zM855 165q126 7 205 41q120 51 208 140.5t145 216.5
q-138 130 -282 130q-84 0 -160 -45q-56 -32 -116 -108v-375zM1061 1656l-109 109l109 110l110 -110zM662 1656l-110 109l110 110l109 -110z" />
    <glyph glyph-name="Udieresis" unicode="&#xdc;" horiz-adv-x="1728" 
d="M1624 1462l31 -30q-86 -106 -106.5 -155t-20.5 -144v-712q0 -148 25 -187t59 -39q26 0 55 30l15 -59l-211 -166q-87 54 -115.5 104.5t-36.5 172.5q-159 -151 -300 -214t-307 -63q-305 0 -468 220q-122 163 -122 379q0 160 70 298.5t211 267.5q96 87 257 184
q-126 -31 -189 -31q-45 0 -101 5t-93 5q-84 0 -132.5 -51t-48.5 -141q0 -33 6 -83h-42q-12 71 -12 116q0 159 83 252.5t196 93.5q32 0 60 -6q18 -4 119.5 -40.5t182.5 -36.5q72 0 136 27q33 14 76 56h45v-560q103 -56 195 -56q48 0 85.5 11.5t92.5 44.5v289l-113 83
l-115 -125l-33 31l242 269l213 -153zM901 1416q-63 -67 -80.5 -120t-17.5 -209v-464q0 -76 -11 -113q-15 -47 -55 -93q-58 -67 -208 -176q72 -49 135 -69t149 -20q42 0 88 7v1257zM489 273q67 71 87.5 133t20.5 221v297q0 115 6.5 150t32.5 80q45 78 155 206
q-159 -92 -253.5 -177t-155.5 -214t-61 -286q0 -140 52 -254q36 -78 116 -156zM1319 901q-60 -30 -98 -40t-85 -10q-88 0 -190 50v-233q107 47 193 47q82 0 180 -47v233zM1319 619q-100 50 -181 50q-49 0 -90.5 -11.5t-101.5 -44.5v-446q100 21 182.5 59.5t190.5 117.5v275z
M1111 1656l-109 109l109 110l110 -110zM712 1656l-110 109l110 110l109 -110z" />
    <glyph glyph-name="aacute" unicode="&#xe1;" horiz-adv-x="918" 
d="M784 1023l36 -14q-54 -84 -68.5 -128.5t-14.5 -120.5v-426q0 -106 16.5 -132.5t39.5 -26.5q12 0 25 6q8 5 47 36l22 -33l-223 -184q-77 60 -103 107.5t-29 132.5l-304 -240q-171 140 -171 276q0 91 37 171q49 105 169 245l-120 256l14 28q39 -4 58 -4q118 0 208 94
q73 -43 159.5 -69t132.5 -26q21 0 32 7.5t37 44.5zM532 832l-342 105l122 -258l220 -103v256zM532 535l-242 113q-56 -122 -56 -214q0 -162 147 -267l151 122v246zM445 1141h-55l90 373h233z" />
    <glyph glyph-name="agrave" unicode="&#xe0;" horiz-adv-x="918" 
d="M784 1023l36 -14q-54 -84 -68.5 -128.5t-14.5 -120.5v-426q0 -106 16.5 -132.5t39.5 -26.5q12 0 25 6q8 5 47 36l22 -33l-223 -184q-77 60 -103 107.5t-29 132.5l-304 -240q-171 140 -171 276q0 91 37 171q49 105 169 245l-120 256l14 28q39 -4 58 -4q118 0 208 94
q73 -43 159.5 -69t132.5 -26q21 0 32 7.5t37 44.5zM532 832l-342 105l122 -258l220 -103v256zM532 535l-242 113q-56 -122 -56 -214q0 -162 147 -267l151 122v246zM567 1141l-267 373h232l91 -373h-56z" />
    <glyph glyph-name="acircumflex" unicode="&#xe2;" horiz-adv-x="918" 
d="M784 1023l36 -14q-54 -84 -68.5 -128.5t-14.5 -120.5v-426q0 -106 16.5 -132.5t39.5 -26.5q12 0 25 6q8 5 47 36l22 -33l-223 -184q-77 60 -103 107.5t-29 132.5l-304 -240q-171 140 -171 276q0 91 37 171q49 105 169 245l-120 256l14 28q39 -4 58 -4q118 0 208 94
q73 -43 159.5 -69t132.5 -26q21 0 32 7.5t37 44.5zM532 832l-342 105l122 -258l220 -103v256zM532 535l-242 113q-56 -122 -56 -214q0 -162 147 -267l151 122v246zM256 1143h-60l189 374h216l185 -374h-60l-233 215z" />
    <glyph glyph-name="adieresis" unicode="&#xe4;" horiz-adv-x="918" 
d="M784 1023l36 -14q-54 -84 -68.5 -128.5t-14.5 -120.5v-426q0 -106 16.5 -132.5t39.5 -26.5q12 0 25 6q8 5 47 36l22 -33l-223 -184q-77 60 -103 107.5t-29 132.5l-304 -240q-171 140 -171 276q0 91 37 171q49 105 169 245l-120 256l14 28q39 -4 58 -4q118 0 208 94
q73 -43 159.5 -69t132.5 -26q21 0 32 7.5t37 44.5zM532 832l-342 105l122 -258l220 -103v256zM532 535l-242 113q-56 -122 -56 -214q0 -162 147 -267l151 122v246zM691 1256l-109 109l109 110l110 -110zM292 1256l-110 109l110 110l109 -110z" />
    <glyph glyph-name="atilde" unicode="&#xe3;" horiz-adv-x="918" 
d="M784 1023l36 -14q-54 -84 -68.5 -128.5t-14.5 -120.5v-426q0 -106 16.5 -132.5t39.5 -26.5q12 0 25 6q8 5 47 36l22 -33l-223 -184q-77 60 -103 107.5t-29 132.5l-304 -240q-171 140 -171 276q0 91 37 171q49 105 169 245l-120 256l14 28q39 -4 58 -4q118 0 208 94
q73 -43 159.5 -69t132.5 -26q21 0 32 7.5t37 44.5zM532 832l-342 105l122 -258l220 -103v256zM532 535l-242 113q-56 -122 -56 -214q0 -162 147 -267l151 122v246zM210 1202h-41q15 109 53 161q59 83 148 83q26 0 62 -10q21 -5 83 -33q108 -49 159 -49q32 0 58 20t44 71h37
q-12 -124 -70 -183t-139 -59q-61 0 -158 44t-139 44q-31 0 -55.5 -20t-41.5 -69z" />
    <glyph glyph-name="aring" unicode="&#xe5;" horiz-adv-x="918" 
d="M784 1023l36 -14q-54 -84 -68.5 -128.5t-14.5 -120.5v-426q0 -106 16.5 -132.5t39.5 -26.5q12 0 25 6q8 5 47 36l22 -33l-223 -184q-77 60 -103 107.5t-29 132.5l-304 -240q-171 140 -171 276q0 91 37 171q49 105 169 245l-120 256l14 28q39 -4 58 -4q118 0 208 94
q73 -43 159.5 -69t132.5 -26q21 0 32 7.5t37 44.5zM532 832l-342 105l122 -258l220 -103v256zM532 535l-242 113q-56 -122 -56 -214q0 -162 147 -267l151 122v246zM451 1487q70 0 118.5 -49t48.5 -118t-49 -118t-118 -49t-118 49t-49 118t48.5 118t118.5 49zM451 1429
q-46 0 -78 -32t-32 -77t32.5 -77.5t77.5 -32.5t77.5 32.5t32.5 77.5t-32 77t-78 32z" />
    <glyph glyph-name="ccedilla" unicode="&#xe7;" horiz-adv-x="682" 
d="M394 1066l260 -148l-106 -157l-196 113v-637l196 -89l106 75l10 -42l-248 -181q-96 54 -164 79.5t-167 44.5v24q35 24 46 52q16 39 16 122v569q125 57 247 175zM323 -93l72 79q60 24 101 24q73 0 119 -44.5t46 -107.5q0 -76 -63.5 -128.5t-200.5 -52.5q-74 0 -145 13
l16 33q72 -6 85 -6q67 0 106.5 32t39.5 70q0 36 -34.5 64.5t-95.5 28.5q-16 0 -46 -5z" />
    <glyph glyph-name="eacute" unicode="&#xe9;" horiz-adv-x="811" 
d="M504 1066l282 -329l-448 -314v-182l232 -92l157 107l22 -30l-324 -226q-99 53 -163 76t-182 48v25q34 20 45.5 49.5t11.5 127.5v572q94 34 156 62q45 21 211 106zM352 951l-14 -7v-453l263 184zM405 1141h-55l90 373h233z" />
    <glyph glyph-name="egrave" unicode="&#xe8;" horiz-adv-x="811" 
d="M504 1066l282 -329l-448 -314v-182l232 -92l157 107l22 -30l-324 -226q-99 53 -163 76t-182 48v25q34 20 45.5 49.5t11.5 127.5v572q94 34 156 62q45 21 211 106zM352 951l-14 -7v-453l263 184zM497 1141l-267 373h232l91 -373h-56z" />
    <glyph glyph-name="ecircumflex" unicode="&#xea;" horiz-adv-x="811" 
d="M504 1066l282 -329l-448 -314v-182l232 -92l157 107l22 -30l-324 -226q-99 53 -163 76t-182 48v25q34 20 45.5 49.5t11.5 127.5v572q94 34 156 62q45 21 211 106zM352 951l-14 -7v-453l263 184zM216 1143h-60l189 374h216l185 -374h-60l-233 215z" />
    <glyph glyph-name="edieresis" unicode="&#xeb;" horiz-adv-x="811" 
d="M504 1066l282 -329l-448 -314v-182l232 -92l157 107l22 -30l-324 -226q-99 53 -163 76t-182 48v25q34 20 45.5 49.5t11.5 127.5v572q94 34 156 62q45 21 211 106zM352 951l-14 -7v-453l263 184zM651 1256l-109 109l109 110l110 -110zM252 1256l-110 109l110 110l109 -110
z" />
    <glyph glyph-name="iacute" unicode="&#xed;" horiz-adv-x="575" 
d="M259 1066l178 -147l-79 -77v-544q0 -86 16 -112t33 -26q12 0 22 5q14 7 58 40l24 -31l-227 -174q-80 57 -103 107.5t-23 176.5v558l-75 77zM238 1141h-55l90 373h233z" />
    <glyph glyph-name="igrave" unicode="&#xec;" horiz-adv-x="575" 
d="M259 1066l178 -147l-79 -77v-544q0 -86 16 -112t33 -26q12 0 22 5q14 7 58 40l24 -31l-227 -174q-80 57 -103 107.5t-23 176.5v558l-75 77zM330 1141l-267 373h232l91 -373h-56z" />
    <glyph glyph-name="icircumflex" unicode="&#xee;" horiz-adv-x="575" 
d="M259 1066l178 -147l-79 -77v-544q0 -86 16 -112t33 -26q12 0 22 5q14 7 58 40l24 -31l-227 -174q-80 57 -103 107.5t-23 176.5v558l-75 77zM49 1143h-60l189 374h216l185 -374h-60l-233 215z" />
    <glyph glyph-name="idieresis" unicode="&#xef;" horiz-adv-x="575" 
d="M259 1066l178 -147l-79 -77v-544q0 -86 16 -112t33 -26q12 0 22 5q14 7 58 40l24 -31l-227 -174q-80 57 -103 107.5t-23 176.5v558l-75 77zM484 1256l-109 109l109 110l110 -110zM85 1256l-110 109l110 110l109 -110z" />
    <glyph glyph-name="ntilde" unicode="&#xf1;" 
d="M682 1066l164 -153l97 94l28 -27q-70 -64 -85 -97q-20 -44 -20 -121v-475q0 -66 21 -98q13 -21 29 -21q14 0 66 39l24 -31l-215 -176q-83 63 -106.5 111.5t-23.5 156.5v551l-109 94l-162 -129v-569l72 -72l-177 -143l-178 143l78 72v511q0 109 -22 147q-15 26 -34 26
q-20 0 -60 -31l-24 28l213 170q88 -62 110 -98t22 -100v-34zM289 1202h-41q15 109 53 161q59 83 148 83q26 0 62 -10q21 -5 83 -33q108 -49 159 -49q32 0 58 20t44 71h37q-12 -124 -70 -183t-139 -59q-61 0 -158 44t-139 44q-31 0 -55.5 -20t-41.5 -69z" />
    <glyph glyph-name="oacute" unicode="&#xf3;" horiz-adv-x="918" 
d="M794 920v-748q-150 -61 -217 -100q-51 -29 -98 -72q-145 88 -240 122q-72 26 -163 30l-10 20q38 32 48 58q14 34 14 115v549q183 61 313 172q142 -94 353 -146zM330 269l261 -107v636q-123 57 -174 75q-36 13 -87 22v-626zM405 1141h-55l90 373h233z" />
    <glyph glyph-name="ograve" unicode="&#xf2;" horiz-adv-x="918" 
d="M794 920v-748q-150 -61 -217 -100q-51 -29 -98 -72q-145 88 -240 122q-72 26 -163 30l-10 20q38 32 48 58q14 34 14 115v549q183 61 313 172q142 -94 353 -146zM330 269l261 -107v636q-123 57 -174 75q-36 13 -87 22v-626zM497 1141l-267 373h232l91 -373h-56z" />
    <glyph glyph-name="ocircumflex" unicode="&#xf4;" horiz-adv-x="918" 
d="M794 920v-748q-150 -61 -217 -100q-51 -29 -98 -72q-145 88 -240 122q-72 26 -163 30l-10 20q38 32 48 58q14 34 14 115v549q183 61 313 172q142 -94 353 -146zM330 269l261 -107v636q-123 57 -174 75q-36 13 -87 22v-626zM216 1143h-60l189 374h216l185 -374h-60
l-233 215z" />
    <glyph glyph-name="odieresis" unicode="&#xf6;" horiz-adv-x="918" 
d="M794 920v-748q-150 -61 -217 -100q-51 -29 -98 -72q-145 88 -240 122q-72 26 -163 30l-10 20q38 32 48 58q14 34 14 115v549q183 61 313 172q142 -94 353 -146zM330 269l261 -107v636q-123 57 -174 75q-36 13 -87 22v-626zM651 1256l-109 109l109 110l110 -110zM252 1256
l-110 109l110 110l109 -110z" />
    <glyph glyph-name="otilde" unicode="&#xf5;" horiz-adv-x="918" 
d="M794 920v-748q-150 -61 -217 -100q-51 -29 -98 -72q-145 88 -240 122q-72 26 -163 30l-10 20q38 32 48 58q14 34 14 115v549q183 61 313 172q142 -94 353 -146zM330 269l261 -107v636q-123 57 -174 75q-36 13 -87 22v-626zM170 1202h-41q15 109 53 161q59 83 148 83
q26 0 62 -10q21 -5 83 -33q108 -49 159 -49q32 0 58 20t44 71h37q-12 -124 -70 -183t-139 -59q-61 0 -158 44t-139 44q-31 0 -55.5 -20t-41.5 -69z" />
    <glyph glyph-name="uacute" unicode="&#xfa;" 
d="M763 1066l179 -148l-81 -74v-525q0 -91 25 -130q16 -27 35 -27q14 0 54 33l26 -32l-211 -163q-80 56 -104.5 100.5t-26.5 141.5q-155 -100 -316 -242q-97 76 -127 133.5t-30 151.5v494q0 52 -8 68q-14 28 -38 28q-18 0 -54 -31l-27 28l222 194l181 -148l-74 -68v-531
q0 -59 15 -86.5t73 -69.5l183 135v546l-71 74zM524 1141h-55l90 373h233z" />
    <glyph glyph-name="ugrave" unicode="&#xf9;" 
d="M763 1066l179 -148l-81 -74v-525q0 -91 25 -130q16 -27 35 -27q14 0 54 33l26 -32l-211 -163q-80 56 -104.5 100.5t-26.5 141.5q-155 -100 -316 -242q-97 76 -127 133.5t-30 151.5v494q0 52 -8 68q-14 28 -38 28q-18 0 -54 -31l-27 28l222 194l181 -148l-74 -68v-531
q0 -59 15 -86.5t73 -69.5l183 135v546l-71 74zM616 1141l-267 373h232l91 -373h-56z" />
    <glyph glyph-name="ucircumflex" unicode="&#xfb;" 
d="M763 1066l179 -148l-81 -74v-525q0 -91 25 -130q16 -27 35 -27q14 0 54 33l26 -32l-211 -163q-80 56 -104.5 100.5t-26.5 141.5q-155 -100 -316 -242q-97 76 -127 133.5t-30 151.5v494q0 52 -8 68q-14 28 -38 28q-18 0 -54 -31l-27 28l222 194l181 -148l-74 -68v-531
q0 -59 15 -86.5t73 -69.5l183 135v546l-71 74zM286 1143h-60l189 374h216l185 -374h-60l-233 215z" />
    <glyph glyph-name="udieresis" unicode="&#xfc;" 
d="M763 1066l179 -148l-81 -74v-525q0 -91 25 -130q16 -27 35 -27q14 0 54 33l26 -32l-211 -163q-80 56 -104.5 100.5t-26.5 141.5q-155 -100 -316 -242q-97 76 -127 133.5t-30 151.5v494q0 52 -8 68q-14 28 -38 28q-18 0 -54 -31l-27 28l222 194l181 -148l-74 -68v-531
q0 -59 15 -86.5t73 -69.5l183 135v546l-71 74zM721 1256l-109 109l109 110l110 -110zM322 1256l-110 109l110 110l109 -110z" />
    <glyph glyph-name="dagger" unicode="&#x2020;" 
d="M847 779q-129 118 -296 127q4 -172 134 -289q-68 -154 -98 -360q-38 -259 -38 -546q0 -16 1 -48h-52q-7 414 -39 619q-25 161 -96 334q126 114 136 289q-150 -3 -301 -128l-146 155l147 150q143 -112 298 -126q-8 111 -40 201q-24 66 -92 171l159 149l161 -153
q-54 -62 -92.5 -159.5t-42.5 -208.5q83 7 162.5 42.5t134.5 83.5l145 -152z" />
    <glyph glyph-name="degree" unicode="&#xb0;" horiz-adv-x="819" 
d="M405 1384q144 0 245 -101t101 -245q0 -143 -101.5 -244.5t-244.5 -101.5t-244.5 101.5t-101.5 244.5q0 144 101 245t245 101zM405 1254q-90 0 -152.5 -63t-62.5 -152t63 -152t152 -63t152 63t63 152t-63 152t-152 63z" />
    <glyph glyph-name="cent" unicode="&#xa2;" horiz-adv-x="768" 
d="M282 85q-58 21 -154 39v24q35 24 46 52q16 39 16 122v569q125 57 247 175l109 -62l78 271h66l-87 -303l94 -54l-106 -157l-41 24l-155 -548l196 -89l106 75l10 -42l-248 -181q-70 40 -117 60l-83 -291h-68zM395 477l98 341l-98 56v-397z" />
    <glyph glyph-name="sterling" unicode="&#xa3;" horiz-adv-x="1386" 
d="M100 586l62 175h264q-36 104 -36 198q0 95 36 177l497 248l361 -226l-145 -175l-412 254q-93 -120 -93 -262q0 -45 8 -84t39 -130h406l-62 -175h-310q2 -21 2 -31q0 -54 -23 -133.5t-80 -164.5q149 38 260 38q214 0 437 -88l-111 -207q-332 111 -571 111
q-235 0 -529 -111l-16 27q72 45 205 107.5t260 103.5q3 36 3 54q0 47 -19.5 131t-52.5 163h-380z" />
    <glyph glyph-name="section" unicode="&#xa7;" 
d="M189 -189l95 164l421 -150q49 64 49 109q0 38 -21 71t-82 77q-34 25 -228 145q-146 92 -191 130q-62 53 -97.5 123.5t-35.5 142.5q0 151 172 300q-36 38 -54.5 81.5t-18.5 92.5q0 80 55 171.5t188 208.5l416 -150l-99 -161l-419 150q-46 -71 -46 -109q0 -46 27 -80
q38 -51 153 -119q43 -25 180 -113.5t189.5 -140.5t78 -110.5t25.5 -117.5q0 -79 -38.5 -149.5t-133.5 -158.5q38 -41 56.5 -83.5t18.5 -86.5q0 -80 -39.5 -151t-199.5 -235zM746 250q98 87 98 166q0 59 -51 122q-52 63 -215 164.5t-199.5 127.5t-77.5 61q-59 -55 -79 -92
t-20 -80q0 -58 54 -120q53 -62 246 -180q133 -81 244 -169z" />
    <glyph glyph-name="bullet" unicode="&#x2022;" horiz-adv-x="717" 
d="M363 962q119 0 202 -83.5t83 -202.5q0 -118 -83.5 -202t-201.5 -84q-119 0 -202.5 84t-83.5 202q0 119 83.5 202.5t202.5 83.5z" />
    <glyph glyph-name="paragraph" unicode="&#xb6;" horiz-adv-x="917" 
d="M798 1301v-1743h-72v1743h-187v-1743h-73v1043q-191 8 -285.5 50.5t-144.5 131t-50 198.5t43 180q58 96 154.5 145.5t252.5 49.5h495v-55h-133z" />
    <glyph glyph-name="germandbls" unicode="&#xdf;" 
d="M184 910h-101v108h101v250q115 68 218 165l244 -57l-48 -164l-211 48v-392l302 197l141 -135q48 -46 78 -46q8 0 33 10l11 -16l-320 -276q34 3 49 3q125 0 205.5 -76.5t80.5 -185.5q0 -59 -27 -109.5t-95 -105.5q-45 -37 -147 -88q-146 -73 -180.5 -108.5t-34.5 -79.5
q0 -35 23 -59t52 -24q11 0 34.5 5.5t33.5 5.5q15 0 24.5 -9.5t9.5 -24.5q0 -10 -12 -20q-13 -10 -34 -10q-78 0 -123 42t-45 100q0 43 26 82.5t91 89.5q115 88 152.5 144.5t37.5 116.5q0 75 -52.5 126.5t-135.5 51.5q-50 0 -97 -20q-34 -15 -81 -57v-392l-108 -75v-159
l-72 -50h-23v1194zM387 826v-385l355 304l-193 187z" />
    <glyph glyph-name="registered" unicode="&#xae;" horiz-adv-x="1556" 
d="M778 1387q179 0 349 -91.5t265.5 -262t95.5 -355.5q0 -184 -94 -353t-263 -262.5t-353 -93.5t-352.5 93.5t-262.5 262.5t-94 353q0 185 95.5 355.5t265.5 262t348 91.5zM778 1326q-163 0 -318 -84t-242 -239.5t-87 -324.5q0 -168 85.5 -322t239.5 -240t322 -86t322.5 86
t240 240t85.5 322q0 169 -87 324.5t-242 239.5t-319 84zM386 1114h386q145 0 221 -65.5t76 -158.5q0 -76 -51.5 -133.5t-170.5 -88.5l209 -298q38 -53 68 -73q19 -12 53 -15v-33h-184l-294 405h-76v-309q6 -33 28.5 -48t89.5 -15v-33h-367v33q50 0 70.5 13t29.5 39
q4 13 4 86v523q0 74 -3 87q-7 23 -25.5 35.5t-63.5 12.5v36zM623 697h30q133 0 194 52t61 130q0 81 -56.5 136t-144.5 55q-38 0 -84 -16v-357z" />
    <glyph glyph-name="copyright" unicode="&#xa9;" horiz-adv-x="1556" 
d="M778 1387q179 0 349 -91.5t265.5 -262t95.5 -355.5q0 -184 -94 -353t-263 -262.5t-353 -93.5t-352.5 93.5t-262.5 262.5t-94 353q0 185 95.5 355.5t265.5 262t348 91.5zM778 1326q-163 0 -318 -84t-242 -239.5t-87 -324.5q0 -168 85.5 -322t239.5 -240t322 -86t322.5 86
t240 240t85.5 322q0 169 -87 324.5t-242 239.5t-319 84zM1129 1134l20 -280h-39q-36 119 -114.5 177.5t-188.5 58.5q-82 0 -146 -34t-105 -91q-30 -43 -50 -114t-20 -150q0 -212 91 -312.5t240 -100.5q195 0 312 162l37 -19q-139 -203 -383 -203q-200 0 -331.5 129.5
t-131.5 314.5q0 192 140 327.5t358 135.5q46 0 76.5 -6t108.5 -32q25 -8 37 -8q16 0 27 8.5t22 36.5h40z" />
    <glyph glyph-name="trademark" unicode="&#x2122;" horiz-adv-x="2007" 
d="M51 1356h728l22 -201h-34q-10 72 -52.5 106.5t-141.5 34.5h-75v-579q0 -84 20 -106.5t86 -25.5v-36h-374v36q65 6 82.5 27.5t17.5 103.5v580h-76q-95 0 -135 -31.5t-55 -109.5h-34zM1156 1356l273 -572l265 572h279v-37q-71 -2 -91 -25.5t-20 -109.5v-468q0 -85 19 -106
t92 -25v-36h-398v36q59 1 79.5 12t30 32t9.5 86v492l-307 -658h-32l-308 649v-482q0 -64 5 -81q9 -25 28 -37.5t60 -12.5h36v-36h-306v36q56 0 75.5 10t28.5 31t9 90v466q0 89 -19.5 113t-93.5 24v37h286z" />
    <glyph glyph-name="acute" unicode="&#xb4;" horiz-adv-x="682" 
d="M295 1141h-55l90 373h233z" />
    <glyph glyph-name="dieresis" unicode="&#xa8;" horiz-adv-x="682" 
d="M541 1256l-109 109l109 110l110 -110zM142 1256l-110 109l110 110l109 -110z" />
    <glyph glyph-name="notequal" unicode="&#x2260;" horiz-adv-x="1366" 
d="M130 1003h599l207 526h157l-203 -526h343v-185h-416l-113 -290h529v-184h-601l-208 -526h-158l207 526h-343v184h415l113 290h-528v185z" />
    <glyph glyph-name="AE" unicode="&#xc6;" horiz-adv-x="2410" 
d="M1470 1495l35 -37q-119 -71 -176 -140t-82 -162.5t-25 -267.5q0 -237 18.5 -320t71.5 -164q70 60 83 92t13 150v496l429 353q232 -98 379 -98q33 0 99 6l25 -31l-351 -357h277l-105 -190h-380v-644l52 -2q136 0 252 49.5t263 175.5l22 -32q-109 -164 -240 -250
q-185 -122 -416 -122q-156 0 -277.5 48.5t-211.5 132.5q-62 58 -129 163l-459 -344q-312 210 -441 210q-30 0 -46 -15.5t-16 -38.5q0 -18 22.5 -55.5t22.5 -53.5q0 -20 -13.5 -33.5t-34.5 -13.5q-22 0 -39 21q-24 30 -24 71q0 44 20 87q34 74 115 183l138 191
q-130 88 -198 192t-68 240q0 128 74 247.5t216.5 191t309.5 71.5q160 0 312 -65q101 -42 213 -138q58 69 118.5 115t151.5 88zM1735 1344l-121 -103v-474q0 -78 -8 -105q-11 -37 -43 -77q-52 -65 -223 -212q78 -80 155 -118q105 -52 240 -71v1160zM874 1279
q-76 32 -125.5 43t-114.5 11q-222 0 -355.5 -117t-133.5 -269q0 -199 225 -363l327 454q-68 44 -122 44q-87 0 -144 -74q-14 -19 -25 -19q-6 0 -10.5 5.5t-4.5 13.5q0 38 32 89t97.5 84t137.5 33q60 0 144 -32zM1781 867l341 346q-135 23 -202.5 44t-138.5 58v-448z
M1017 1166q-45 50 -102 90l-433 -591h535v501zM370 514l-90 -127l514 -213l280 213q-31 81 -42 127h-662z" />
    <glyph glyph-name="Oslash" unicode="&#xd8;" horiz-adv-x="1729" 
d="M1140 1451l36 68h114l-54 -102q200 -83 310 -234t110 -332q0 -129 -67 -253.5t-228 -280t-323.5 -236.5t-317.5 -81q-109 0 -214 36l-33 -61h-114l53 100q-163 83 -251.5 230t-88.5 328q0 101 21 194.5t73 216.5q99 49 232 135q71 47 359 228q58 36 131 88
q162 -17 252 -44zM812 833v463q-68 4 -134 6l-161 -105v-555q0 -127 -4.5 -166t-23 -77.5t-57.5 -78.5q51 -43 77 -61zM1037 1258q-80 23 -182 35v-264q26 -22 42 -35zM1133 1223l-149 -281q73 -30 141 -30q74 0 135 27.5t127 89.5q-52 68 -95 101q-69 53 -159 93zM473 1171
q-85 -63 -122 -106q-49 -57 -82 -139t-33 -180q0 -212 163 -395q46 43 60 85.5t14 166.5v568zM855 612q71 70 132.5 98t142.5 28q85 0 153 -30t146 -104q27 99 27 172q0 67 -10 117q-8 37 -33 92q-87 -70 -151 -95.5t-142 -25.5q-71 0 -130 23.5t-135 84.5v-360zM855 165
q126 7 205 41q120 51 208 140.5t145 216.5q-138 130 -282 130q-84 0 -160 -45q-56 -32 -116 -108v-375zM812 617l-214 -406q91 -38 214 -46v452z" />
    <glyph glyph-name="infinity" unicode="&#x221e;" horiz-adv-x="1451" 
d="M649 667q68 156 149 216.5t221 60.5q161 0 272 -116t111 -301q0 -183 -108 -301.5t-241 -118.5q-89 0 -161.5 55t-175.5 231q-64 -124 -140 -178.5t-184 -54.5q-144 0 -243.5 103t-99.5 266q0 165 92 266t215 101q92 0 156.5 -48t136.5 -181zM745 464q71 -149 143.5 -206
t168.5 -57q123 0 205.5 88.5t82.5 237.5q0 147 -87 243t-195 96q-69 0 -120.5 -35t-93.5 -112q-24 -45 -104 -255zM620 590q-49 110 -112 162t-155 52q-106 0 -177.5 -74.5t-71.5 -199.5q0 -133 70.5 -212.5t159.5 -79.5q95 0 168 85q47 56 118 267z" />
    <glyph glyph-name="plusminus" unicode="&#xb1;" horiz-adv-x="1366" 
d="M130 938h459v461h185v-461h461v-184h-461v-459h-185v459h-459v184zM130 131h1105v-185h-1105v185z" />
    <glyph glyph-name="lessequal" unicode="&#x2264;" horiz-adv-x="1366" 
d="M1234 330l-1103 461v167l1103 461v-199l-852 -345l852 -345v-200zM130 110h1105v-185h-1105v185z" />
    <glyph glyph-name="greaterequal" unicode="&#x2265;" horiz-adv-x="1366" 
d="M131 1419l1103 -461v-167l-1103 -461v199l851 345l-851 345v200zM130 110h1105v-185h-1105v185z" />
    <glyph glyph-name="yen" unicode="&#xa5;" horiz-adv-x="1493" 
d="M1441 1204l-73 -148l-265 107l-214 -508v-74h329l-51 -151h-278v-212q54 13 116 13q46 0 98 -13l-75 -167q-94 16 -129 16q-69 0 -195.5 -19t-220.5 -48l-14 42q67 40 218 110v278h-329l52 151h277v74l-232 388q-7 12 -16 27q-54 97 -94.5 128t-93.5 31q-47 0 -92 -28
q-30 -19 -81 -88l-28 32q43 118 122 178t166 60q53 0 104.5 -23.5t85.5 -64.5q48 -57 81 -113l263 -448l267 642q103 -69 212 -125z" />
    <glyph glyph-name="mu" unicode="&#xb5;" horiz-adv-x="1024" 
d="M86 946h202v-563q0 -180 42 -236t109 -56q34 0 64 16.5t153 121.5v717h202v-684q0 -134 14 -157t40 -23q30 0 56 29.5t33 92.5h50q-6 -117 -63.5 -174.5t-147.5 -57.5q-78 0 -125 44.5t-59 145.5q-147 -139 -193 -164.5t-108 -25.5q-55 0 -99 21.5t-78 63.5
q-2 -30 -2 -46q0 -81 41 -239q16 -60 16 -104q0 -45 -32 -77.5t-80 -32.5q-52 0 -81 29.5t-29 78.5q0 47 35 166q23 79 27 106q14 104 14 169l-1 83v756z" />
    <glyph glyph-name="partialdiff" unicode="&#x2202;" horiz-adv-x="1003" 
d="M925 717q12 113 12 186q0 180 -94.5 278.5t-251.5 98.5q-106 0 -176 -40t-125 -119h-46q77 158 166 229.5t215 71.5q90 0 175.5 -49t138 -158t52.5 -295q0 -354 -154 -636q-173 -315 -438 -315q-156 0 -247.5 90t-91.5 245q0 117 46.5 229.5t117.5 190.5t158 124
q113 60 230 60q82 0 148.5 -31.5t109.5 -76.5q27 -28 55 -83zM908 628q-39 111 -116.5 168t-170.5 57q-90 0 -177 -62t-151 -217.5t-64 -310.5q0 -114 55 -175.5t140 -61.5q123 0 251 130q163 166 233 472z" />
    <glyph glyph-name="summation" unicode="&#x2211;" horiz-adv-x="1451" 
d="M1351 -204h-1313v36l669 831l-669 817v37h1278l27 -337h-40q-16 138 -77.5 197t-171.5 59h-740l562 -687l-629 -777h818q70 0 153 27q57 19 94.5 67.5t62.5 151.5l40 -7z" />
    <glyph glyph-name="product" unicode="&#x220f;" horiz-adv-x="1685" 
d="M1240 1438h-795v-1449q0 -86 38.5 -120.5t159.5 -34.5v-38h-597v38h35q88 0 125.5 35.5t37.5 119.5v1334q0 83 -37 119t-126 36h-35v38h1594v-38h-35q-88 0 -125 -35.5t-37 -119.5v-1334q0 -86 38.5 -120.5t158.5 -34.5v-38h-597v38h35q88 0 125 35.5t37 119.5v1449z" />
    <glyph glyph-name="pi" unicode="&#x3c0;" horiz-adv-x="1088" 
d="M1006 916v-146h-232q-17 -104 -28 -240.5t-11 -217.5q0 -90 35.5 -131.5t89.5 -41.5q44 0 74 28t36 83h36q-18 -150 -76 -214t-130 -64q-74 0 -124.5 69.5t-50.5 276.5q0 91 11 204q17 183 27 248h-235l-22 -305q-26 -239 -63 -369q-20 -72 -62 -107q-19 -17 -47 -17
q-39 0 -64.5 24.5t-25.5 58.5q0 28 10 52q6 15 55 83q33 45 51 97t33 168q3 22 24 315h-29q-70 0 -114 -28t-94 -113h-36q32 120 81 185t95 83.5t148 18.5h638z" />
    <glyph glyph-name="integral" unicode="&#x222b;" horiz-adv-x="555" 
d="M197 895l18 582q6 105 27 186.5t50 122.5q21 30 61.5 53.5t78.5 23.5q50 0 87.5 -33.5t37.5 -73.5q0 -47 -26.5 -75.5t-65.5 -28.5q-35 0 -76 36q-23 20 -40 20t-28.5 -14.5t-11.5 -49.5q0 -41 9 -145q37 -411 37 -663q0 -70 -14 -524q-5 -167 -20 -259
q-20 -122 -52 -175.5t-70.5 -75.5t-83.5 -22q-52 0 -85 34t-33 87q0 45 25.5 72t64.5 27q40 0 69 -32t49 -32q17 0 28 14t11 47q0 42 -9 120q-17 143 -26 338q-12 249 -12 440z" />
    <glyph glyph-name="ordfeminine" unicode="&#xaa;" horiz-adv-x="619" 
d="M569 1012l19 -31l-162 -106q-66 43 -74 126l-202 -126q-110 77 -110 164q0 111 135 226l-68 161l24 38q44 -13 71 -13q25 0 45 7t65 34l130 -48q16 -6 25 -6q22 0 54 38l27 -20q-8 -17 -22 -41q-24 -42 -29 -62q-10 -41 -10 -98v-138q0 -86 17 -115q8 -14 21 -14
q6 0 28 15q5 3 16 9zM352 1218v135l-202 65l56 -130zM352 1045v135l-143 70q-35 -81 -35 -122q0 -81 68 -153z" />
    <glyph glyph-name="ordmasculine" unicode="&#xba;" horiz-adv-x="575" 
d="M498 1425v-454q-62 -17 -99 -34t-104 -59q-99 44 -138 55t-85 11h-20l-16 27q24 28 31 51q9 31 9 92v291q76 15 108.5 29.5t94.5 60.5q62 -37 104.5 -50.5t114.5 -19.5zM365 991v335q-66 33 -154 47v-327z" />
    <glyph glyph-name="Omega" unicode="&#x2126;" horiz-adv-x="1515" 
d="M57 313h36q5 -72 51 -105q30 -22 112 -22h270v67q-144 29 -268 145q-166 155 -166 399q0 245 185.5 417.5t483.5 172.5t480.5 -170t182.5 -417q0 -200 -113.5 -344.5t-322.5 -202.5v-67h275q79 0 115.5 28t42.5 99h36v-313h-559l22 302q116 37 187 150t71 327
q0 254 -124.5 393.5t-297.5 139.5q-108 0 -204 -58.5t-155.5 -180.5t-59.5 -280q0 -116 28 -224.5t83.5 -170.5t144.5 -96l23 -302h-559v313z" />
    <glyph glyph-name="ae" unicode="&#xe6;" horiz-adv-x="1260" 
d="M925 1066l301 -326l-466 -323v-186l250 -89l158 110l21 -31l-322 -221q-134 68 -310 116v126l-328 -242q-88 63 -129.5 129t-41.5 150q0 94 45.5 186.5t162.5 214.5l-122 267l16 37q36 -6 63 -6q68 0 119.5 20.5t106.5 67.5q64 -36 127.5 -58t163.5 -39q110 46 185 97z
M187 947l116 -249l254 -125v261zM781 945l-21 -8v-449l278 193zM303 653q-67 -126 -67 -224q0 -90 45 -166q31 -53 101 -98l175 133v232z" />
    <glyph glyph-name="oslash" unicode="&#xf8;" horiz-adv-x="918" 
d="M253 117l-63 -117h-84l76 139q-37 10 -106 13l-10 20q38 32 48 58q14 34 14 115v549q183 61 313 172q81 -53 193 -96l53 97h83l-66 -122q38 -12 90 -25v-748q-150 -61 -217 -100q-51 -29 -98 -72q-135 82 -226 117zM330 412l221 405q-137 63 -221 78v-483zM591 737
l-256 -470l256 -105v575z" />
    <glyph glyph-name="questiondown" unicode="&#xbf;" horiz-adv-x="682" 
d="M403 1082l153 -153l-153 -152l-152 152zM649 -14l-150 -269l-34 -1q-180 0 -281 88.5t-101 210.5q0 63 29 127t119.5 171t119 182t28.5 210h45q2 -42 2 -63q0 -74 -17 -153t-68 -222q-39 -108 -39 -180q0 -35 20.5 -77.5t59.5 -65t82 -22.5q81 0 156 81z" />
    <glyph glyph-name="exclamdown" unicode="&#xa1;" horiz-adv-x="575" 
d="M288 1082l153 -153l-153 -152l-152 152zM466 -98l-178 -186l-178 186q127 253 156 806h42q24 -319 63 -505t95 -301z" />
    <glyph glyph-name="logicalnot" unicode="&#xac;" horiz-adv-x="1366" 
d="M130 1012h1105v-672h-184l-1 487h-920v185z" />
    <glyph glyph-name="radical" unicode="&#x221a;" horiz-adv-x="1131" 
d="M1053 1869h74l-312 -1947l-496 1021l-198 -91l-34 64l301 151l405 -823z" />
    <glyph glyph-name="florin" unicode="&#x192;" horiz-adv-x="999" 
d="M664 909l-201 -869q-7 -28 -7 -51q0 -63 47 -96l-12 -24q-139 -40 -288 -153l-189 187l29 28l64 -62l133 85l221 955h-94l26 112h94l55 241q171 99 266 171l180 -47l-70 -167l-173 43l-56 -241h156l-26 -112h-155z" />
    <glyph glyph-name="approxequal" unicode="&#x2248;" horiz-adv-x="1366" 
d="M1169 1096h63q-2 -163 -82.5 -253t-197.5 -90q-56 0 -117.5 17.5t-259.5 101.5q-142 60 -207 60q-66 0 -109.5 -40.5t-61.5 -137.5h-64q9 177 85 260t187 83q57 0 110 -14q100 -28 273 -104q96 -41 144 -54q30 -8 65 -8q68 0 115 46t57 133zM1169 587h63
q-2 -163 -82.5 -253t-196.5 -90q-56 0 -118 17.5t-260 100.5q-141 60 -207 60t-110 -40.5t-61 -136.5h-64q9 177 85 260t186 83q58 0 110 -15q100 -27 274 -103q97 -42 145 -55q29 -8 64 -8q68 0 115 46t57 134z" />
    <glyph glyph-name="Delta" unicode="&#x2206;" horiz-adv-x="1253" 
d="M1226 0h-1200l628 1387zM990 82l-399 967l-440 -967h839z" />
    <glyph glyph-name="guillemotleft" unicode="&#xab;" horiz-adv-x="811" 
d="M373 91l-27 -31q-147 105 -217.5 236.5t-70.5 272.5q0 302 288 511l27 -29q-84 -88 -128 -214.5t-44 -265.5q0 -140 44.5 -266t127.5 -214zM751 91l-28 -31q-141 99 -214 235t-73 275q0 132 69 265t218 244l28 -28q-171 -193 -171 -478q0 -135 43 -261.5t128 -220.5z" />
    <glyph glyph-name="guillemotright" unicode="&#xbb;" horiz-adv-x="811" 
d="M438 91q83 88 127.5 214t44.5 266q0 139 -44 265.5t-128 214.5l27 29q288 -209 288 -511q0 -141 -70 -272.5t-218 -236.5zM60 91q85 94 128 220.5t43 261.5q0 285 -171 478l28 28q150 -111 219 -244t69 -265q0 -139 -73.5 -275t-214.5 -235z" />
    <glyph glyph-name="ellipsis" unicode="&#x2026;" horiz-adv-x="2068" 
d="M344 0l-152 152l152 153l153 -153zM1034 0l-152 152l152 153l153 -153zM1724 0l-152 152l152 153l153 -153z" />
    <glyph glyph-name="nonbreakingspace" unicode="&#xa0;" horiz-adv-x="523" 
 />
    <glyph glyph-name="Agrave" unicode="&#xc0;" horiz-adv-x="1493" 
d="M1389 1515l19 -46q-72 -35 -106.5 -69.5t-48.5 -77t-14 -126.5q0 -27 1 -72l17 -747q2 -123 26 -161q17 -27 41 -27q29 0 90 58l29 -37l-186 -159l-62 -51q-79 37 -112.5 98t-37.5 195l-387 -293q-323 213 -440 213q-29 0 -49 -18q-15 -13 -15 -37q0 -26 19 -57
q25 -42 25 -55q0 -19 -14 -32.5t-34 -13.5q-25 0 -40 20q-22 27 -22 70q0 48 27.5 107.5t81.5 129.5q11 15 20 28l143 195q-145 109 -203.5 209t-58.5 224q0 144 73.5 267t221 194t303.5 71q239 0 461 -166q54 57 104 93.5t128 72.5zM897 1283q-126 62 -251 62
q-133 0 -250 -58.5t-175 -151t-58 -189.5q0 -205 222 -363l334 457q-75 41 -135 41q-83 0 -136 -78q-10 -16 -20 -16q-6 0 -11.5 6t-5.5 15q0 31 31.5 86t93 89t129.5 34q70 0 159 -34zM1026 1180q-29 32 -39 41q-7 7 -50 37l-437 -596h538zM392 516l-90 -125l508 -219
l236 174l-4 170h-650zM1057 1681l-267 373h232l91 -373h-56z" />
    <glyph glyph-name="Atilde" unicode="&#xc3;" horiz-adv-x="1493" 
d="M1389 1515l19 -46q-72 -35 -106.5 -69.5t-48.5 -77t-14 -126.5q0 -27 1 -72l17 -747q2 -123 26 -161q17 -27 41 -27q29 0 90 58l29 -37l-186 -159l-62 -51q-79 37 -112.5 98t-37.5 195l-387 -293q-323 213 -440 213q-29 0 -49 -18q-15 -13 -15 -37q0 -26 19 -57
q25 -42 25 -55q0 -19 -14 -32.5t-34 -13.5q-25 0 -40 20q-22 27 -22 70q0 48 27.5 107.5t81.5 129.5q11 15 20 28l143 195q-145 109 -203.5 209t-58.5 224q0 144 73.5 267t221 194t303.5 71q239 0 461 -166q54 57 104 93.5t128 72.5zM897 1283q-126 62 -251 62
q-133 0 -250 -58.5t-175 -151t-58 -189.5q0 -205 222 -363l334 457q-75 41 -135 41q-83 0 -136 -78q-10 -16 -20 -16q-6 0 -11.5 6t-5.5 15q0 31 31.5 86t93 89t129.5 34q70 0 159 -34zM1026 1180q-29 32 -39 41q-7 7 -50 37l-437 -596h538zM392 516l-90 -125l508 -219
l236 174l-4 170h-650zM702 1652h-41q15 109 53 161q59 83 148 83q26 0 62 -10q21 -5 83 -33q108 -49 159 -49q32 0 58 20t44 71h37q-12 -124 -70 -183t-139 -59q-61 0 -158 44t-139 44q-31 0 -55.5 -20t-41.5 -69z" />
    <glyph glyph-name="Otilde" unicode="&#xd5;" horiz-adv-x="1729" 
d="M888 1495q174 -18 272 -50q148 -47 259.5 -133.5t174 -204.5t62.5 -256q0 -128 -66 -252t-226.5 -279t-323.5 -237.5t-319 -82.5q-167 0 -323 83t-241 228.5t-85 321.5q0 101 21 194.5t73 216.5q99 49 232 135q71 47 359 228q58 36 131 88zM812 1296q-68 4 -134 6v-591
q0 -96 -13 -134t-48 -79l-185 -178q94 -80 177.5 -113.5t202.5 -41.5v1131zM855 1029q72 -62 136.5 -89.5t140.5 -27.5q70 0 129.5 27.5t125.5 89.5q-57 74 -106 110q-90 65 -193.5 102t-232.5 52v-264zM473 1171q-85 -63 -122 -106q-49 -57 -82 -139t-33 -180
q0 -212 163 -395q46 43 60 85.5t14 166.5v568zM855 612q71 70 132.5 98t142.5 28q85 0 153 -30t146 -104q27 99 27 172q0 67 -10 117q-8 37 -33 92q-87 -70 -151 -95.5t-142 -25.5q-71 0 -130 23.5t-135 84.5v-360zM855 165q126 7 205 41q120 51 208 140.5t145 216.5
q-138 130 -282 130q-84 0 -160 -45q-56 -32 -116 -108v-375zM590 1652h-41q15 109 53 161q59 83 148 83q26 0 62 -10q21 -5 83 -33q108 -49 159 -49q32 0 58 20t44 71h37q-12 -124 -70 -183t-139 -59q-61 0 -158 44t-139 44q-31 0 -55.5 -20t-41.5 -69z" />
    <glyph glyph-name="OE" unicode="&#x152;" horiz-adv-x="2796" 
d="M2699 1398l23 -27l-338 -348h264l-101 -188h-385v-659l50 -1q139 -4 263.5 52t258.5 175l19 -32q-114 -171 -253 -258q-180 -112 -413 -112q-160 0 -287.5 55t-217.5 149q-60 63 -124 176q-189 -195 -363 -287.5t-358 -92.5q-174 0 -333.5 85t-244 233t-84.5 306
q0 100 21.5 194t77.5 227q134 72 304 180q305 194 413 270q248 -22 424 -109q116 -57 211 -177q60 95 127 163t153 123l32 -33q-88 -74 -141.5 -166.5t-73 -188t-19.5 -295.5q0 -186 17.5 -256t72.5 -154q67 54 81.5 85.5t14.5 122.5v527l389 325l31 28q7 5 13 5q5 0 16 -6
q199 -98 357 -98q34 0 103 7zM2119 1344l-126 -107v-492q0 -64 -6.5 -88t-22.5 -47q-27 -37 -84 -94l-90 -83l-68 -64q80 -81 168 -124t229 -65v1164zM2162 862l341 348q-206 30 -341 106v-454zM816 1300q-44 2 -66 2l-66 -2v-578q0 -104 -18 -145q-30 -69 -110 -144
l-120 -111q95 -81 173 -113.5t207 -43.5v1135zM860 1031q70 -64 133 -91t141 -27q68 0 125 24.5t124 85.5q-33 70 -69 104q-58 55 -175 103t-279 65v-264zM481 1172q-112 -76 -164 -160q-75 -121 -75 -269q0 -119 50 -230q36 -78 113 -162q47 54 61.5 98.5t14.5 148.5v574z
M860 613q74 68 137 96t138 28q63 0 123.5 -22t142.5 -81q6 47 6 109v135q0 54 -6 93q-84 -60 -142 -81t-125 -21t-129 22.5t-145 79.5v-358zM860 163q129 8 198 27q97 28 167.5 81t113 128t62.5 184q-73 61 -133.5 85.5t-132.5 24.5q-84 0 -149.5 -36.5t-125.5 -112.5v-381z
" />
    <glyph glyph-name="oe" unicode="&#x153;" horiz-adv-x="1260" 
d="M948 1066l275 -319v-17l-444 -308v-181l230 -96l160 108l21 -31l-319 -222q-124 72 -262 102q-71 -34 -150 -102q-91 72 -186.5 109.5t-205.5 47.5l-12 22q32 22 41 44q13 30 13 97v575q116 46 179.5 82t126.5 89h21q128 -82 265 -117l109 47zM1043 676l-247 272l-17 -8
v-448zM575 172v632q-131 65 -259 99v-624z" />
    <glyph glyph-name="endash" unicode="&#x2013;" horiz-adv-x="1024" 
d="M-12 558h1048v-92h-1048v92z" />
    <glyph glyph-name="emdash" unicode="&#x2014;" horiz-adv-x="2048" 
d="M-12 558h2072v-92h-2072v92z" />
    <glyph glyph-name="quotedblleft" unicode="&#x201c;" horiz-adv-x="918" 
d="M437 1157l-147 -147l-148 138q55 243 271 347l24 -35q-66 -54 -80 -77q-23 -38 -23 -75q0 -33 20.5 -66.5t82.5 -84.5zM812 1157l-147 -147l-148 138q55 243 271 347l24 -35q-66 -54 -80 -77q-23 -38 -23 -75q0 -33 20.5 -66.5t82.5 -84.5z" />
    <glyph glyph-name="quotedblright" unicode="&#x201d;" horiz-adv-x="918" 
d="M138 1348l148 147l147 -138q-55 -243 -271 -347l-24 35q66 54 80 77q23 38 23 75q0 33 -20.5 66.5t-82.5 84.5zM516 1348l148 147l147 -138q-55 -243 -271 -347l-24 35q66 54 80 77q23 38 23 75q0 33 -20.5 66.5t-82.5 84.5z" />
    <glyph glyph-name="quoteleft" unicode="&#x2018;" horiz-adv-x="575" 
d="M437 1157l-147 -147l-148 138q55 243 271 347l24 -35q-66 -54 -80 -77q-23 -38 -23 -75q0 -33 20.5 -66.5t82.5 -84.5z" />
    <glyph glyph-name="quoteright" unicode="&#x2019;" horiz-adv-x="575" 
d="M138 1348l148 147l147 -138q-55 -243 -271 -347l-24 35q66 54 80 77q23 38 23 75q0 33 -20.5 66.5t-82.5 84.5z" />
    <glyph glyph-name="divide" unicode="&#xf7;" horiz-adv-x="1366" 
d="M679 1202q47 0 79.5 -32.5t32.5 -79.5q0 -46 -33 -79t-79 -33q-47 0 -79.5 33t-32.5 79q0 47 32.5 79.5t79.5 32.5zM130 759h1105v-176h-1105v176zM680 373q48 0 81 -33t33 -80t-33.5 -80t-80.5 -33q-46 0 -79.5 33t-33.5 80t33 80t80 33z" />
    <glyph glyph-name="lozenge" unicode="&#x25ca;" horiz-adv-x="1012" 
d="M503 1509l446 -765l-446 -787l-443 787zM503 1244l-291 -500l291 -522l292 522z" />
    <glyph glyph-name="ydieresis" unicode="&#xff;" horiz-adv-x="918" 
d="M54 891l210 175q86 -58 111.5 -101t25.5 -118v-22l303 241q155 -163 155 -349q0 -100 -51 -199.5t-160 -189t-352 -234.5q-106 -64 -127 -81q-45 -35 -64 -68q-14 -24 -14 -54q0 -51 50.5 -94.5t133.5 -43.5q60 0 99 21q19 10 37 42.5t31 42.5t31 10q20 0 32 -11t12 -29
q0 -32 -47 -63q-72 -50 -182 -50q-115 0 -177 54.5t-62 129.5q0 74 69 144q33 34 41 48q22 38 30 70.5t8 91.5v478q0 100 -23 136q-18 28 -39 28q-17 0 -44 -26q-4 -4 -13 -12zM401 779v-568q141 102 200.5 212.5t59.5 210.5q0 135 -110 264zM712 1256l-109 109l109 110
l110 -110zM313 1256l-110 109l110 110l109 -110z" />
    <glyph glyph-name="Ydieresis" unicode="&#x178;" horiz-adv-x="1622" 
d="M122 1391l-21 38q70 58 113.5 75.5t101.5 17.5q81 0 152 -32.5t111 -85.5q31 -41 52 -123q147 109 250 151t198 42q178 0 308.5 -148t130.5 -409q0 -149 -49.5 -282t-147 -218.5t-228.5 -123t-224 -37.5l-424 9q-96 0 -179.5 -31.5t-121.5 -84.5t-38 -115
q0 -79 58.5 -135t141.5 -56q45 0 93 13t183 71q195 85 323 85q132 0 209 -62q58 -48 58 -125q0 -46 -26.5 -73.5t-65.5 -27.5q-33 0 -56.5 25t-23.5 64q0 31 22 70q14 24 14 34q0 14 -11 23q-17 12 -44 12q-34 0 -73 -14t-142 -73q-146 -83 -230 -112t-153 -29
q-135 0 -229 89t-94 209q0 116 89.5 198.5t277.5 93.5q1 21 1 31q0 114 -49 198t-128 125q-50 27 -129 28v36q44 7 74 7q65 0 118 -18t113 -61q2 29 2 51q0 122 -75.5 202t-179.5 80q-24 0 -62 -5v39q65 34 127 34q46 0 85.5 -13t102.5 -53q1 52 1 88q0 191 -59 267t-142 76
q-51 0 -105 -35zM789 1048q62 -55 113 -76t115 -21q70 0 128 24.5t132 90.5q-30 93 -64 143q-52 76 -120.5 113.5t-142.5 37.5q-68 0 -161 -43v-269zM742 1293q-57 -34 -111 -73v-906q37 -1 56 -1l55 1v979zM789 685q76 51 131.5 70.5t118.5 19.5q64 0 119.5 -19.5
t129.5 -70.5q16 87 16 153q0 67 -16 175q-85 -64 -147.5 -87.5t-133.5 -23.5q-54 0 -103.5 18.5t-114.5 65.5v-301zM789 314q145 3 236.5 36.5t149.5 98t102 184.5q-73 55 -124.5 74t-114.5 19q-64 0 -119.5 -20t-129.5 -73v-319zM1041 1676l-109 109l109 110l110 -110z
M642 1676l-110 109l110 110l109 -110z" />
    <glyph glyph-name="fraction" unicode="&#x2215;" horiz-adv-x="256" 
d="M-269 -68h-130l910 1458h131z" />
    <glyph glyph-name="currency" unicode="&#xa4;" horiz-adv-x="1417" 
d="M939 1053l130 131l121 -124l-129 -130q79 -124 79 -261q0 -133 -79 -257l129 -128l-121 -123l-130 128q-62 -40 -127.5 -60t-135.5 -20q-66 0 -130.5 20t-126.5 60l-128 -128l-124 123l130 128q-80 123 -80 260q0 133 80 259l-130 129l121 124l131 -131q64 40 129 60
t131 20q67 0 132 -20t128 -60zM679 959q-120 0 -204.5 -84t-84.5 -204t84.5 -204.5t204.5 -84.5t204 84.5t84 204.5t-84 204t-204 84z" />
    <glyph glyph-name="guilsinglleft" unicode="&#x2039;" horiz-adv-x="469" 
d="M391 91l-27 -31q-147 105 -217.5 236.5t-70.5 272.5q0 302 288 511l27 -29q-84 -88 -128 -214.5t-44 -265.5q0 -140 44.5 -266t127.5 -214z" />
    <glyph glyph-name="guilsinglright" unicode="&#x203a;" horiz-adv-x="469" 
d="M78 91q83 88 127.5 214t44.5 266q0 139 -43.5 265.5t-128.5 214.5l28 29q287 -209 287 -511q0 -141 -70 -272.5t-217 -236.5z" />
    <glyph glyph-name="fi" unicode="&#xf001;" 
d="M555 1369l-31 -165l-183 43v-236h155v-113h-155v-664l113 -83l78 61l23 -28l-232 -184q-124 112 -253 151l-6 23q36 23 50 47q24 41 24 99v578h-94v113h94v236q151 100 226 169zM793 1408h128l-138 -216h-41zM717 1066l178 -147l-78 -77v-544q0 -86 16 -112t33 -26
q12 0 22 5q13 7 57 40l25 -31l-228 -174q-79 57 -102.5 107.5t-23.5 176.5v558l-74 77z" />
    <glyph glyph-name="fl" unicode="&#xf002;" 
d="M584 186l-241 -186q-73 68 -127.5 99.5t-130.5 51.5v20q45 13 60 51t15 146v530h-114v113h114v244q92 57 131.5 89t73.5 72l241 -50q56 -11 69 -21q33 -24 66 -70q69 76 118 102q74 39 145 39v-30q-72 -36 -103.5 -101.5t-31.5 -213.5v-749q0 -100 15.5 -124.5
t38.5 -24.5q19 0 56 33l25 -25l-204 -181q-67 49 -91 84t-34 83q-7 30 -7 139v879q0 79 -8.5 101.5t-30.5 35.5l-29 -128l-240 47v-230h170v-113h-170v-667l117 -80l81 65z" />
    <glyph glyph-name="daggerdbl" unicode="&#x2021;" 
d="M846 778q-133 118 -297 127q10 -181 132 -329q-58 -65 -90 -146.5t-42 -193.5q146 7 297 127l148 -153l-148 -151q-78 60 -146.5 88t-150.5 37q13 -222 137 -368l-164 -153l-160 153q58 71 90.5 158t41.5 210q-152 -11 -295 -125l-148 151l148 153q139 -121 295 -127
q-16 203 -132 340q116 127 132 329q-158 -8 -295 -127l-148 152l148 154q61 -56 140.5 -90t154.5 -38q-8 115 -39.5 203t-92.5 169l160 149l159 -149q-121 -132 -132 -372q160 11 297 128l144 -154z" />
    <glyph glyph-name="periodcentered" unicode="&#x2219;" horiz-adv-x="575" 
d="M287 541l-152 152l152 153l153 -153z" />
    <glyph glyph-name="quotesinglbase" unicode="&#x201a;" horiz-adv-x="575" 
d="M138 158l148 147l147 -138q-55 -243 -271 -347l-24 35q66 54 80 77q23 38 23 75q0 33 -20.5 66.5t-82.5 84.5z" />
    <glyph glyph-name="quotedblbase" unicode="&#x201e;" horiz-adv-x="918" 
d="M138 158l148 147l147 -138q-55 -243 -271 -347l-24 35q66 54 80 77q23 38 23 75q0 33 -20.5 66.5t-82.5 84.5zM536 158l148 147l147 -138q-55 -243 -271 -347l-24 35q66 54 80 77q23 38 23 75q0 33 -20.5 66.5t-82.5 84.5z" />
    <glyph glyph-name="perthousand" unicode="&#x2030;" horiz-adv-x="2068" 
d="M306 -68h-146l910 1458h147zM357 635q-136 43 -214 141t-78 212q0 116 79 225.5t213 170.5q93 -38 140 -75q73 -58 111.5 -128.5t38.5 -147.5q0 -79 -41 -160t-109 -144q-47 -43 -140 -94zM451 770q39 56 53.5 98t14.5 92q0 88 -64.5 166.5t-192.5 119.5
q-70 -75 -70 -190q0 -90 60.5 -164.5t198.5 -121.5zM1720 0q-136 43 -214 141t-78 212q0 116 79 225.5t213 170.5q92 -38 140 -75q73 -57 111.5 -128t38.5 -148q0 -79 -41 -159.5t-109 -144.5q-47 -43 -140 -94zM1814 135q39 56 53.5 98t14.5 92q0 88 -64.5 166.5
t-192.5 119.5q-70 -75 -70 -190q0 -90 60 -164.5t199 -121.5zM1054 0q-136 43 -214.5 141t-78.5 212q0 116 79 225.5t214 170.5q92 -38 139 -75q74 -57 112 -128t38 -148q0 -79 -41 -159.5t-109 -144.5q-47 -43 -139 -94zM1148 135q38 56 53 98t15 92q0 88 -65 166.5
t-193 119.5q-70 -75 -70 -190q0 -90 60.5 -164.5t199.5 -121.5z" />
    <glyph glyph-name="Acircumflex" unicode="&#xc2;" horiz-adv-x="1493" 
d="M1389 1515l19 -46q-72 -35 -106.5 -69.5t-48.5 -77t-14 -126.5q0 -27 1 -72l17 -747q2 -123 26 -161q17 -27 41 -27q29 0 90 58l29 -37l-186 -159l-62 -51q-79 37 -112.5 98t-37.5 195l-387 -293q-323 213 -440 213q-29 0 -49 -18q-15 -13 -15 -37q0 -26 19 -57
q25 -42 25 -55q0 -19 -14 -32.5t-34 -13.5q-25 0 -40 20q-22 27 -22 70q0 48 27.5 107.5t81.5 129.5q11 15 20 28l143 195q-145 109 -203.5 209t-58.5 224q0 144 73.5 267t221 194t303.5 71q239 0 461 -166q54 57 104 93.5t128 72.5zM897 1283q-126 62 -251 62
q-133 0 -250 -58.5t-175 -151t-58 -189.5q0 -205 222 -363l334 457q-75 41 -135 41q-83 0 -136 -78q-10 -16 -20 -16q-6 0 -11.5 6t-5.5 15q0 31 31.5 86t93 89t129.5 34q70 0 159 -34zM1026 1180q-29 32 -39 41q-7 7 -50 37l-437 -596h538zM392 516l-90 -125l508 -219
l236 174l-4 170h-650zM756 1623h-60l189 374h216l185 -374h-60l-233 215z" />
    <glyph glyph-name="Ecircumflex" unicode="&#xca;" horiz-adv-x="1493" 
d="M578 1369l20 -31q-166 -106 -244.5 -243.5t-78.5 -294.5q0 -202 138 -386q58 48 70 80.5t12 167.5v460l437 373q122 -59 205.5 -82t164.5 -23q42 0 104 9l25 -30l-345 -349h270l-109 -192h-380v-648l64 -3q142 0 282 71q106 53 218 166l24 -38q-116 -181 -256 -269
q-171 -107 -390 -107q-345 0 -545 238q-159 189 -159 443q0 158 65 294.5t183 244.5q84 76 225 149zM821 1320l-122 -102v-464q0 -77 -8.5 -107t-39.5 -65q-66 -78 -212 -199q87 -92 172.5 -137t209.5 -62v1136zM1204 1207q-105 15 -172.5 36t-164.5 69v-447zM606 1593h-60
l189 374h216l185 -374h-60l-233 215z" />
    <glyph glyph-name="Aacute" unicode="&#xc1;" horiz-adv-x="1493" 
d="M1389 1515l19 -46q-72 -35 -106.5 -69.5t-48.5 -77t-14 -126.5q0 -27 1 -72l17 -747q2 -123 26 -161q17 -27 41 -27q29 0 90 58l29 -37l-186 -159l-62 -51q-79 37 -112.5 98t-37.5 195l-387 -293q-323 213 -440 213q-29 0 -49 -18q-15 -13 -15 -37q0 -26 19 -57
q25 -42 25 -55q0 -19 -14 -32.5t-34 -13.5q-25 0 -40 20q-22 27 -22 70q0 48 27.5 107.5t81.5 129.5q11 15 20 28l143 195q-145 109 -203.5 209t-58.5 224q0 144 73.5 267t221 194t303.5 71q239 0 461 -166q54 57 104 93.5t128 72.5zM897 1283q-126 62 -251 62
q-133 0 -250 -58.5t-175 -151t-58 -189.5q0 -205 222 -363l334 457q-75 41 -135 41q-83 0 -136 -78q-10 -16 -20 -16q-6 0 -11.5 6t-5.5 15q0 31 31.5 86t93 89t129.5 34q70 0 159 -34zM1026 1180q-29 32 -39 41q-7 7 -50 37l-437 -596h538zM392 516l-90 -125l508 -219
l236 174l-4 170h-650zM895 1621h-55l90 373h233z" />
    <glyph glyph-name="Edieresis" unicode="&#xcb;" horiz-adv-x="1493" 
d="M578 1369l20 -31q-166 -106 -244.5 -243.5t-78.5 -294.5q0 -202 138 -386q58 48 70 80.5t12 167.5v460l437 373q122 -59 205.5 -82t164.5 -23q42 0 104 9l25 -30l-345 -349h270l-109 -192h-380v-648l64 -3q142 0 282 71q106 53 218 166l24 -38q-116 -181 -256 -269
q-171 -107 -390 -107q-345 0 -545 238q-159 189 -159 443q0 158 65 294.5t183 244.5q84 76 225 149zM821 1320l-122 -102v-464q0 -77 -8.5 -107t-39.5 -65q-66 -78 -212 -199q87 -92 172.5 -137t209.5 -62v1136zM1204 1207q-105 15 -172.5 36t-164.5 69v-447zM1041 1656
l-109 109l109 110l110 -110zM642 1656l-110 109l110 110l109 -110z" />
    <glyph glyph-name="Egrave" unicode="&#xc8;" horiz-adv-x="1493" 
d="M578 1369l20 -31q-166 -106 -244.5 -243.5t-78.5 -294.5q0 -202 138 -386q58 48 70 80.5t12 167.5v460l437 373q122 -59 205.5 -82t164.5 -23q42 0 104 9l25 -30l-345 -349h270l-109 -192h-380v-648l64 -3q142 0 282 71q106 53 218 166l24 -38q-116 -181 -256 -269
q-171 -107 -390 -107q-345 0 -545 238q-159 189 -159 443q0 158 65 294.5t183 244.5q84 76 225 149zM821 1320l-122 -102v-464q0 -77 -8.5 -107t-39.5 -65q-66 -78 -212 -199q87 -92 172.5 -137t209.5 -62v1136zM1204 1207q-105 15 -172.5 36t-164.5 69v-447zM1087 1591
l-267 373h232l91 -373h-56z" />
    <glyph glyph-name="Iacute" unicode="&#xcd;" horiz-adv-x="1260" 
d="M1178 1515l17 -34q-105 -31 -145 -82.5t-40 -138.5q0 -108 47 -382q38 -221 45 -279.5t7 -121.5q0 -159 -59 -265.5t-151 -155.5t-167 -49q-79 0 -263 58q-146 45 -208 45t-105 -31.5t-64 -93.5l-38 15q24 94 63 146q51 68 108.5 95t167.5 33t150 47q40 40 40 127
q0 175 -69 266q-50 66 -132 66q-34 0 -69.5 -14.5t-95.5 -58.5l-29 24q53 90 124 135.5t166 45.5q14 0 34 -1q3 163 46.5 267.5t165.5 239.5q-119 -57 -152 -67.5t-71 -10.5q-31 0 -90.5 11t-89.5 11q-70 0 -107 -31t-47 -98l-38 8q17 111 72 174q78 88 209 88q38 0 91 -12
q99 -21 167 -21q53 0 93 9t97 36l25 -29q-105 -86 -145.5 -173t-40.5 -245q0 -83 6 -145q2 -28 26 -182q29 -194 29 -255q0 -114 -69 -177q-51 -46 -166 -70q117 -102 163.5 -127t93.5 -25q67 0 113.5 48.5t46.5 126.5q0 94 -45 357q-54 310 -54 464q0 144 40.5 229.5
t120.5 140.5q60 41 176 62zM795 1641h-55l90 373h233z" />
    <glyph glyph-name="Icircumflex" unicode="&#xce;" horiz-adv-x="1260" 
d="M1178 1515l17 -34q-105 -31 -145 -82.5t-40 -138.5q0 -108 47 -382q38 -221 45 -279.5t7 -121.5q0 -159 -59 -265.5t-151 -155.5t-167 -49q-79 0 -263 58q-146 45 -208 45t-105 -31.5t-64 -93.5l-38 15q24 94 63 146q51 68 108.5 95t167.5 33t150 47q40 40 40 127
q0 175 -69 266q-50 66 -132 66q-34 0 -69.5 -14.5t-95.5 -58.5l-29 24q53 90 124 135.5t166 45.5q14 0 34 -1q3 163 46.5 267.5t165.5 239.5q-119 -57 -152 -67.5t-71 -10.5q-31 0 -90.5 11t-89.5 11q-70 0 -107 -31t-47 -98l-38 8q17 111 72 174q78 88 209 88q38 0 91 -12
q99 -21 167 -21q53 0 93 9t97 36l25 -29q-105 -86 -145.5 -173t-40.5 -245q0 -83 6 -145q2 -28 26 -182q29 -194 29 -255q0 -114 -69 -177q-51 -46 -166 -70q117 -102 163.5 -127t93.5 -25q67 0 113.5 48.5t46.5 126.5q0 94 -45 357q-54 310 -54 464q0 144 40.5 229.5
t120.5 140.5q60 41 176 62zM606 1593h-60l189 374h216l185 -374h-60l-233 215z" />
    <glyph glyph-name="Idieresis" unicode="&#xcf;" horiz-adv-x="1260" 
d="M1178 1515l17 -34q-105 -31 -145 -82.5t-40 -138.5q0 -108 47 -382q38 -221 45 -279.5t7 -121.5q0 -159 -59 -265.5t-151 -155.5t-167 -49q-79 0 -263 58q-146 45 -208 45t-105 -31.5t-64 -93.5l-38 15q24 94 63 146q51 68 108.5 95t167.5 33t150 47q40 40 40 127
q0 175 -69 266q-50 66 -132 66q-34 0 -69.5 -14.5t-95.5 -58.5l-29 24q53 90 124 135.5t166 45.5q14 0 34 -1q3 163 46.5 267.5t165.5 239.5q-119 -57 -152 -67.5t-71 -10.5q-31 0 -90.5 11t-89.5 11q-70 0 -107 -31t-47 -98l-38 8q17 111 72 174q78 88 209 88q38 0 91 -12
q99 -21 167 -21q53 0 93 9t97 36l25 -29q-105 -86 -145.5 -173t-40.5 -245q0 -83 6 -145q2 -28 26 -182q29 -194 29 -255q0 -114 -69 -177q-51 -46 -166 -70q117 -102 163.5 -127t93.5 -25q67 0 113.5 48.5t46.5 126.5q0 94 -45 357q-54 310 -54 464q0 144 40.5 229.5
t120.5 140.5q60 41 176 62zM1041 1656l-109 109l109 110l110 -110zM642 1656l-110 109l110 110l109 -110z" />
    <glyph glyph-name="Igrave" unicode="&#xcc;" horiz-adv-x="1260" 
d="M1178 1515l17 -34q-105 -31 -145 -82.5t-40 -138.5q0 -108 47 -382q38 -221 45 -279.5t7 -121.5q0 -159 -59 -265.5t-151 -155.5t-167 -49q-79 0 -263 58q-146 45 -208 45t-105 -31.5t-64 -93.5l-38 15q24 94 63 146q51 68 108.5 95t167.5 33t150 47q40 40 40 127
q0 175 -69 266q-50 66 -132 66q-34 0 -69.5 -14.5t-95.5 -58.5l-29 24q53 90 124 135.5t166 45.5q14 0 34 -1q3 163 46.5 267.5t165.5 239.5q-119 -57 -152 -67.5t-71 -10.5q-31 0 -90.5 11t-89.5 11q-70 0 -107 -31t-47 -98l-38 8q17 111 72 174q78 88 209 88q38 0 91 -12
q99 -21 167 -21q53 0 93 9t97 36l25 -29q-105 -86 -145.5 -173t-40.5 -245q0 -83 6 -145q2 -28 26 -182q29 -194 29 -255q0 -114 -69 -177q-51 -46 -166 -70q117 -102 163.5 -127t93.5 -25q67 0 113.5 48.5t46.5 126.5q0 94 -45 357q-54 310 -54 464q0 144 40.5 229.5
t120.5 140.5q60 41 176 62zM937 1641l-267 373h232l91 -373h-56z" />
    <glyph glyph-name="Oacute" unicode="&#xd3;" horiz-adv-x="1729" 
d="M888 1495q174 -18 272 -50q148 -47 259.5 -133.5t174 -204.5t62.5 -256q0 -128 -66 -252t-226.5 -279t-323.5 -237.5t-319 -82.5q-167 0 -323 83t-241 228.5t-85 321.5q0 101 21 194.5t73 216.5q99 49 232 135q71 47 359 228q58 36 131 88zM812 1296q-68 4 -134 6v-591
q0 -96 -13 -134t-48 -79l-185 -178q94 -80 177.5 -113.5t202.5 -41.5v1131zM855 1029q72 -62 136.5 -89.5t140.5 -27.5q70 0 129.5 27.5t125.5 89.5q-57 74 -106 110q-90 65 -193.5 102t-232.5 52v-264zM473 1171q-85 -63 -122 -106q-49 -57 -82 -139t-33 -180
q0 -212 163 -395q46 43 60 85.5t14 166.5v568zM855 612q71 70 132.5 98t142.5 28q85 0 153 -30t146 -104q27 99 27 172q0 67 -10 117q-8 37 -33 92q-87 -70 -151 -95.5t-142 -25.5q-71 0 -130 23.5t-135 84.5v-360zM855 165q126 7 205 41q120 51 208 140.5t145 216.5
q-138 130 -282 130q-84 0 -160 -45q-56 -32 -116 -108v-375zM845 1641h-55l90 373h233z" />
    <glyph glyph-name="Ocircumflex" unicode="&#xd4;" horiz-adv-x="1729" 
d="M888 1495q174 -18 272 -50q148 -47 259.5 -133.5t174 -204.5t62.5 -256q0 -128 -66 -252t-226.5 -279t-323.5 -237.5t-319 -82.5q-167 0 -323 83t-241 228.5t-85 321.5q0 101 21 194.5t73 216.5q99 49 232 135q71 47 359 228q58 36 131 88zM812 1296q-68 4 -134 6v-591
q0 -96 -13 -134t-48 -79l-185 -178q94 -80 177.5 -113.5t202.5 -41.5v1131zM855 1029q72 -62 136.5 -89.5t140.5 -27.5q70 0 129.5 27.5t125.5 89.5q-57 74 -106 110q-90 65 -193.5 102t-232.5 52v-264zM473 1171q-85 -63 -122 -106q-49 -57 -82 -139t-33 -180
q0 -212 163 -395q46 43 60 85.5t14 166.5v568zM855 612q71 70 132.5 98t142.5 28q85 0 153 -30t146 -104q27 99 27 172q0 67 -10 117q-8 37 -33 92q-87 -70 -151 -95.5t-142 -25.5q-71 0 -130 23.5t-135 84.5v-360zM855 165q126 7 205 41q120 51 208 140.5t145 216.5
q-138 130 -282 130q-84 0 -160 -45q-56 -32 -116 -108v-375zM606 1593h-60l189 374h216l185 -374h-60l-233 215z" />
    <glyph glyph-name="apple" unicode="&#xf000;" horiz-adv-x="1621" 
d="M1156 1596q1 -38 1 -60q0 -94 -46.5 -166t-155.5 -133q-36 -21 -125 -27q-2 22 -2 33q0 60 42.5 144.5t119.5 140.5q55 40 166 68zM1456 1063q-95 -67 -134 -132q-55 -92 -55 -201q0 -96 55 -183.5t177 -148.5q-119 -260 -226 -356q-81 -73 -184 -73q-51 0 -127.5 29.5
t-118.5 29.5q-51 0 -128.5 -29.5t-121.5 -29.5q-107 0 -200 93q-131 132 -202.5 324t-71.5 350q0 182 92 312q120 170 363 170q71 0 144 -31.5t119 -31.5q26 0 45 5t84.5 32t143.5 27q113 0 190.5 -36t155.5 -120z" />
    <glyph glyph-name="Ograve" unicode="&#xd2;" horiz-adv-x="1729" 
d="M888 1495q174 -18 272 -50q148 -47 259.5 -133.5t174 -204.5t62.5 -256q0 -128 -66 -252t-226.5 -279t-323.5 -237.5t-319 -82.5q-167 0 -323 83t-241 228.5t-85 321.5q0 101 21 194.5t73 216.5q99 49 232 135q71 47 359 228q58 36 131 88zM812 1296q-68 4 -134 6v-591
q0 -96 -13 -134t-48 -79l-185 -178q94 -80 177.5 -113.5t202.5 -41.5v1131zM855 1029q72 -62 136.5 -89.5t140.5 -27.5q70 0 129.5 27.5t125.5 89.5q-57 74 -106 110q-90 65 -193.5 102t-232.5 52v-264zM473 1171q-85 -63 -122 -106q-49 -57 -82 -139t-33 -180
q0 -212 163 -395q46 43 60 85.5t14 166.5v568zM855 612q71 70 132.5 98t142.5 28q85 0 153 -30t146 -104q27 99 27 172q0 67 -10 117q-8 37 -33 92q-87 -70 -151 -95.5t-142 -25.5q-71 0 -130 23.5t-135 84.5v-360zM855 165q126 7 205 41q120 51 208 140.5t145 216.5
q-138 130 -282 130q-84 0 -160 -45q-56 -32 -116 -108v-375zM973 1641l-267 373h232l91 -373h-56z" />
    <glyph glyph-name="Uacute" unicode="&#xda;" horiz-adv-x="1728" 
d="M1624 1462l31 -30q-86 -106 -106.5 -155t-20.5 -144v-712q0 -148 25 -187t59 -39q26 0 55 30l15 -59l-211 -166q-87 54 -115.5 104.5t-36.5 172.5q-159 -151 -300 -214t-307 -63q-305 0 -468 220q-122 163 -122 379q0 160 70 298.5t211 267.5q96 87 257 184
q-126 -31 -189 -31q-45 0 -101 5t-93 5q-84 0 -132.5 -51t-48.5 -141q0 -33 6 -83h-42q-12 71 -12 116q0 159 83 252.5t196 93.5q32 0 60 -6q18 -4 119.5 -40.5t182.5 -36.5q72 0 136 27q33 14 76 56h45v-560q103 -56 195 -56q48 0 85.5 11.5t92.5 44.5v289l-113 83
l-115 -125l-33 31l242 269l213 -153zM901 1416q-63 -67 -80.5 -120t-17.5 -209v-464q0 -76 -11 -113q-15 -47 -55 -93q-58 -67 -208 -176q72 -49 135 -69t149 -20q42 0 88 7v1257zM489 273q67 71 87.5 133t20.5 221v297q0 115 6.5 150t32.5 80q45 78 155 206
q-159 -92 -253.5 -177t-155.5 -214t-61 -286q0 -140 52 -254q36 -78 116 -156zM1319 901q-60 -30 -98 -40t-85 -10q-88 0 -190 50v-233q107 47 193 47q82 0 180 -47v233zM1319 619q-100 50 -181 50q-49 0 -90.5 -11.5t-101.5 -44.5v-446q100 21 182.5 59.5t190.5 117.5v275z
M875 1641h-55l90 373h233z" />
    <glyph glyph-name="Ucircumflex" unicode="&#xdb;" horiz-adv-x="1728" 
d="M1624 1462l31 -30q-86 -106 -106.5 -155t-20.5 -144v-712q0 -148 25 -187t59 -39q26 0 55 30l15 -59l-211 -166q-87 54 -115.5 104.5t-36.5 172.5q-159 -151 -300 -214t-307 -63q-305 0 -468 220q-122 163 -122 379q0 160 70 298.5t211 267.5q96 87 257 184
q-126 -31 -189 -31q-45 0 -101 5t-93 5q-84 0 -132.5 -51t-48.5 -141q0 -33 6 -83h-42q-12 71 -12 116q0 159 83 252.5t196 93.5q32 0 60 -6q18 -4 119.5 -40.5t182.5 -36.5q72 0 136 27q33 14 76 56h45v-560q103 -56 195 -56q48 0 85.5 11.5t92.5 44.5v289l-113 83
l-115 -125l-33 31l242 269l213 -153zM901 1416q-63 -67 -80.5 -120t-17.5 -209v-464q0 -76 -11 -113q-15 -47 -55 -93q-58 -67 -208 -176q72 -49 135 -69t149 -20q42 0 88 7v1257zM489 273q67 71 87.5 133t20.5 221v297q0 115 6.5 150t32.5 80q45 78 155 206
q-159 -92 -253.5 -177t-155.5 -214t-61 -286q0 -140 52 -254q36 -78 116 -156zM1319 901q-60 -30 -98 -40t-85 -10q-88 0 -190 50v-233q107 47 193 47q82 0 180 -47v233zM1319 619q-100 50 -181 50q-49 0 -90.5 -11.5t-101.5 -44.5v-446q100 21 182.5 59.5t190.5 117.5v275z
M676 1573h-60l189 374h216l185 -374h-60l-233 215z" />
    <glyph glyph-name="Ugrave" unicode="&#xd9;" horiz-adv-x="1728" 
d="M1624 1462l31 -30q-86 -106 -106.5 -155t-20.5 -144v-712q0 -148 25 -187t59 -39q26 0 55 30l15 -59l-211 -166q-87 54 -115.5 104.5t-36.5 172.5q-159 -151 -300 -214t-307 -63q-305 0 -468 220q-122 163 -122 379q0 160 70 298.5t211 267.5q96 87 257 184
q-126 -31 -189 -31q-45 0 -101 5t-93 5q-84 0 -132.5 -51t-48.5 -141q0 -33 6 -83h-42q-12 71 -12 116q0 159 83 252.5t196 93.5q32 0 60 -6q18 -4 119.5 -40.5t182.5 -36.5q72 0 136 27q33 14 76 56h45v-560q103 -56 195 -56q48 0 85.5 11.5t92.5 44.5v289l-113 83
l-115 -125l-33 31l242 269l213 -153zM901 1416q-63 -67 -80.5 -120t-17.5 -209v-464q0 -76 -11 -113q-15 -47 -55 -93q-58 -67 -208 -176q72 -49 135 -69t149 -20q42 0 88 7v1257zM489 273q67 71 87.5 133t20.5 221v297q0 115 6.5 150t32.5 80q45 78 155 206
q-159 -92 -253.5 -177t-155.5 -214t-61 -286q0 -140 52 -254q36 -78 116 -156zM1319 901q-60 -30 -98 -40t-85 -10q-88 0 -190 50v-233q107 47 193 47q82 0 180 -47v233zM1319 619q-100 50 -181 50q-49 0 -90.5 -11.5t-101.5 -44.5v-446q100 21 182.5 59.5t190.5 117.5v275z
M1037 1641l-267 373h232l91 -373h-56z" />
    <glyph glyph-name="dotlessi" unicode="&#x131;" horiz-adv-x="575" 
d="M259 1066l178 -147l-79 -77v-544q0 -86 16 -112t33 -26q12 0 22 5q14 7 58 40l24 -31l-227 -174q-80 57 -103 107.5t-23 176.5v558l-75 77z" />
    <glyph glyph-name="circumflex" unicode="&#x2c6;" horiz-adv-x="682" 
d="M106 1143h-60l189 374h216l185 -374h-60l-233 215z" />
    <glyph glyph-name="tilde" unicode="&#x2dc;" horiz-adv-x="682" 
d="M60 1202h-41q15 109 53 161q59 83 148 83q26 0 62 -10q21 -5 83 -33q108 -49 159 -49q32 0 58 20t44 71h37q-12 -124 -70 -183t-139 -59q-61 0 -158 44t-139 44q-31 0 -55.5 -20t-41.5 -69z" />
    <glyph glyph-name="macron" unicode="&#x2c9;" horiz-adv-x="682" 
d="M645 1246h-608v134h608v-134z" />
    <glyph glyph-name="breve" unicode="&#x2d8;" horiz-adv-x="682" 
d="M47 1512h39q29 -97 95 -148t158 -51q94 0 162.5 53.5t92.5 145.5h42q-13 -152 -87 -262.5t-209 -110.5q-111 0 -182 80q-96 108 -111 293z" />
    <glyph glyph-name="dotaccent" unicode="&#x2d9;" horiz-adv-x="682" 
d="M342 1256l-110 109l110 110l109 -110z" />
    <glyph glyph-name="ring" unicode="&#x2da;" horiz-adv-x="682" 
d="M341 1487q70 0 118.5 -49t48.5 -118t-49 -118t-118 -49t-118 49t-49 118t48.5 118t118.5 49zM341 1429q-46 0 -78 -32t-32 -77t32.5 -77.5t77.5 -32.5t77.5 32.5t32.5 77.5t-32 77t-78 32z" />
    <glyph glyph-name="cedilla" unicode="&#xb8;" horiz-adv-x="682" 
d="M228 -103l72 79q60 24 101 24q73 0 119 -44.5t46 -107.5q0 -76 -63.5 -128.5t-200.5 -52.5q-74 0 -145 13l16 33q72 -6 85 -6q67 0 106.5 32t39.5 70q0 36 -34.5 64.5t-95.5 28.5q-16 0 -46 -5z" />
    <glyph glyph-name="hungarumlaut" unicode="&#x2dd;" horiz-adv-x="682" 
d="M192 1141h-57l91 371h233zM490 1141h-57l90 371h234z" />
    <glyph glyph-name="ogonek" unicode="&#x2db;" horiz-adv-x="682" 
d="M238 17h44q-59 -65 -59 -115q0 -64 62 -122.5t139 -58.5q64 0 127 42l17 -26q-130 -109 -252 -109q-91 0 -145.5 50.5t-54.5 124.5q0 49 26.5 98.5t95.5 115.5z" />
    <glyph glyph-name="caron" unicode="&#x2c7;" horiz-adv-x="682" 
d="M576 1517h60l-189 -374h-216l-185 374h59l234 -214z" />
    <glyph glyph-name="Scaron" unicode="&#x160;" horiz-adv-x="1729" 
d="M643 1495l453 -151l33 59q18 32 25.5 39.5t17.5 7.5t16.5 -7t6.5 -16q0 -14 -24 -55l-211 -365l165 6q78 3 181.5 -22t178 -77.5t117 -124t42.5 -157.5q0 -158 -132.5 -310.5t-471.5 -321.5q-117 48 -272 101q-286 -137 -467 -137q-129 0 -198.5 56.5t-69.5 130.5
q0 79 84 144.5t249 65.5q65 0 162 -14l75 136l-141 -6q-52 -1 -140 14.5t-144.5 50.5t-84.5 86t-28 107q0 89 63 158q40 44 132 79l-1 12q0 93 82.5 213.5t301.5 297.5zM1005 1184q-157 78 -245 104.5t-155 26.5q-94 0 -153 -53t-59 -124q0 -70 50.5 -115t152.5 -45
q68 0 306 25zM792 813q-129 -16 -250 -16q-136 0 -193 32t-85 100q-72 -46 -72 -114q0 -62 56 -102q74 -52 253 -52q83 0 211 11zM768 676q239 27 332 27q127 0 194 -57.5t67 -137.5q0 -70 -65.5 -136t-275.5 -157l198 -61q131 81 202 175t71 207q0 74 -44.5 145.5
t-136.5 114t-212 42.5q-97 0 -248 -20zM574 339q99 -20 161.5 -37t222.5 -68q222 104 222 207q0 32 -28.5 58t-72.5 26q-54 0 -133 -12q-220 -30 -289 -30zM701 122q-256 77 -415 77q-82 0 -130 -36q-33 -24 -33 -59q0 -37 33 -59q52 -36 151 -36q152 0 394 113zM1026 1947
h60l-189 -374h-216l-185 374h59l234 -214z" />
    <glyph glyph-name="scaron" unicode="&#x161;" horiz-adv-x="926" 
d="M589 695l231 -121v-421q-84 -8 -152 -41t-154 -112q-74 44 -128.5 61t-115.5 17q-94 0 -167 -57q-27 -21 -39 -21q-11 0 -22 11t-11 22q0 12 21 32q12 12 41 46l91 113l129 171l-219 118v373q103 32 161.5 71.5t112.5 108.5q128 -54 206 -76q56 -15 107 -15q56 0 87 24.5
t31 51.5q0 18 -20 36q-39 35 -39 68q0 31 17 49.5t38 18.5q28 0 50.5 -25.5t22.5 -67.5q0 -43 -18 -84t-69 -106zM296 626l137 -71l218 290q-67 -19 -116 -19q-123 0 -239 82v-282zM468 535l-241 -323q44 15 82 22t69 7q115 0 239 -76v290zM686 1517h60l-189 -374h-216
l-185 374h59l234 -214z" />
    <glyph glyph-name="brokenbar" unicode="&#xa6;" horiz-adv-x="1159" 
d="M483 1426h186v-729h-186v729zM483 451h186v-728h-186v728z" />
    <glyph glyph-name="Eth" unicode="&#xd0;" horiz-adv-x="1729" 
d="M114 772h257q15 155 74.5 243.5t225.5 189.5q-168 -14 -282 -14q-190 0 -271 72t-81 201v21h38q16 -52 51 -71q53 -30 171 -30q43 0 305.5 11t374.5 11q169 0 274 -44t173.5 -124t104.5 -196.5t51 -306.5q22 -278 24 -521q-121 -68 -305 -214q-224 52 -338 68.5
t-213 16.5q-326 0 -609 -162l-25 34q336 185 475 319q79 76 104.5 144t25.5 222q0 17 -2 50h-155v-40q0 -135 -18.5 -201t-70 -134t-150.5 -145q-28 -23 -242 -172l-26 35q142 95 191 164t49 144q0 52 -33 87.5t-77 35.5q-64 0 -110 -75l-28 29q35 86 87 124.5t114 38.5
q31 0 61 -11.5t59 -34.5l-2 102q0 19 2 53h-254v80zM949 824q45 -36 105 -56.5t115 -20.5q84 0 195 77q-21 230 -119 306.5t-247 76.5l-49 -2v-381zM838 1205q-37 -48 -53.5 -103.5t-27.5 -208.5l5 -109v-12h97v-80h-97l3 -137q0 -161 -146 -308q100 14 135 16l148 5v937
h-64zM717 772l-1 150q0 87 21 163q14 49 54 120h-29q-90 -46 -143 -109q-36 -44 -46.5 -91.5t-10.5 -188.5v-44h155zM949 487q105 50 142 60.5t90 10.5q49 0 84.5 -9.5t127.5 -54.5l-21 278q-107 -68 -223 -68q-46 0 -83.5 12t-116.5 56v-285zM949 267q170 -19 233 -31
t211 -53v250q-48 40 -101 59.5t-112 19.5q-55 0 -113 -19.5t-118 -59.5v-166z" />
    <glyph glyph-name="eth" unicode="&#xf0;" horiz-adv-x="938" 
d="M58 1213v196l284 -196l163 91l25 -49l-140 -78l415 -286v-713q-210 -70 -323 -178q-163 123 -403 162v16q28 19 39 45q18 41 18 111v557q104 33 145 55t79 61l-127 84l-154 -84l-21 49l126 70zM601 164v675l-180 124q-28 -32 -79 -63v-626z" />
    <glyph glyph-name="Yacute" unicode="&#xdd;" horiz-adv-x="1622" 
d="M122 1391l-21 38q70 58 113.5 75.5t101.5 17.5q81 0 152 -32.5t111 -85.5q31 -41 52 -123q147 109 250 151t198 42q178 0 308.5 -148t130.5 -409q0 -149 -49.5 -282t-147 -218.5t-228.5 -123t-224 -37.5l-424 9q-96 0 -179.5 -31.5t-121.5 -84.5t-38 -115
q0 -79 58.5 -135t141.5 -56q45 0 93 13t183 71q195 85 323 85q132 0 209 -62q58 -48 58 -125q0 -46 -26.5 -73.5t-65.5 -27.5q-33 0 -56.5 25t-23.5 64q0 31 22 70q14 24 14 34q0 14 -11 23q-17 12 -44 12q-34 0 -73 -14t-142 -73q-146 -83 -230 -112t-153 -29
q-135 0 -229 89t-94 209q0 116 89.5 198.5t277.5 93.5q1 21 1 31q0 114 -49 198t-128 125q-50 27 -129 28v36q44 7 74 7q65 0 118 -18t113 -61q2 29 2 51q0 122 -75.5 202t-179.5 80q-24 0 -62 -5v39q65 34 127 34q46 0 85.5 -13t102.5 -53q1 52 1 88q0 191 -59 267t-142 76
q-51 0 -105 -35zM789 1048q62 -55 113 -76t115 -21q70 0 128 24.5t132 90.5q-30 93 -64 143q-52 76 -120.5 113.5t-142.5 37.5q-68 0 -161 -43v-269zM742 1293q-57 -34 -111 -73v-906q37 -1 56 -1l55 1v979zM789 685q76 51 131.5 70.5t118.5 19.5q64 0 119.5 -19.5
t129.5 -70.5q16 87 16 153q0 67 -16 175q-85 -64 -147.5 -87.5t-133.5 -23.5q-54 0 -103.5 18.5t-114.5 65.5v-301zM789 314q145 3 236.5 36.5t149.5 98t102 184.5q-73 55 -124.5 74t-114.5 19q-64 0 -119.5 -20t-129.5 -73v-319zM795 1641h-55l90 373h233z" />
    <glyph glyph-name="yacute" unicode="&#xfd;" horiz-adv-x="918" 
d="M54 891l210 175q86 -58 111.5 -101t25.5 -118v-22l303 241q155 -163 155 -349q0 -100 -51 -199.5t-160 -189t-352 -234.5q-106 -64 -127 -81q-45 -35 -64 -68q-14 -24 -14 -54q0 -51 50.5 -94.5t133.5 -43.5q60 0 99 21q19 10 37 42.5t31 42.5t31 10q20 0 32 -11t12 -29
q0 -32 -47 -63q-72 -50 -182 -50q-115 0 -177 54.5t-62 129.5q0 74 69 144q33 34 41 48q22 38 30 70.5t8 91.5v478q0 100 -23 136q-18 28 -39 28q-17 0 -44 -26q-4 -4 -13 -12zM401 779v-568q141 102 200.5 212.5t59.5 210.5q0 135 -110 264zM466 1141h-55l90 373h233z" />
    <glyph glyph-name="Thorn" unicode="&#xde;" horiz-adv-x="1729" 
d="M893 -288h-375v328q-162 -4 -271.5 -41.5t-183.5 -105.5l-27 31q128 137 241.5 204t240.5 95q-22 119 -114.5 213t-260.5 138v49l375 233v623h375v-379l281 182q139 -84 243 -181t140 -177t36 -201v-524l-309 -275q-149 54 -224.5 72.5t-166.5 26.5v-311zM844 1067v368
h-116v-443zM893 753q50 -43 114.5 -65.5t122.5 -22.5q57 0 129 22.5t130 65.5q1 15 1 22q0 58 -26 102q-36 61 -136.5 134t-211.5 121l-123 -83v-296zM844 -244v1260l-116 -77v-1183h116zM518 799l-218 -145q73 -29 121 -61.5t97 -84.5v291zM893 443q69 39 129.5 58
t112.5 19q60 0 129.5 -21.5t124.5 -63.5v263q-64 -40 -131 -60t-137 -20q-53 0 -110 20t-118 60v-255zM893 223q219 -10 496 -139v281q-46 55 -107 82t-136 27q-66 0 -129.5 -23t-123.5 -69v-159z" />
    <glyph glyph-name="thorn" unicode="&#xfe;" horiz-adv-x="918" 
d="M39 153v81q76 19 133 25v853q0 91 -7 126.5t-27.5 68t-71.5 72.5l16 20q91 -26 164 -106q74 79 134.5 108t142.5 32v-26q-78 -41 -111 -101t-33 -179v-302l255 237q111 -79 160 -142q30 -38 40 -74q7 -28 7 -119v-517q-161 -81 -292 -216q-55 41 -170 90v-75
q0 -113 25.5 -169.5t86.5 -94.5l-11 -29q-89 27 -140 61.5t-91 87.5q-53 -57 -137 -90l-13 24q36 25 54.5 73t18.5 148v120q-56 11 -133 13zM379 776v-518q115 -19 158.5 -32t100.5 -42v546q0 60 -10 74q-24 34 -115 93z" />
    <glyph glyph-name="multiply" unicode="&#xd7;" horiz-adv-x="1366" 
d="M167 1057l130 130l387 -388l386 388l131 -131l-386 -387l382 -383l-130 -129l-383 382l-384 -382l-130 129l384 383z" />
    <glyph glyph-name="onesuperior" unicode="&#xb9;" horiz-adv-x="682" 
d="M543 759l-169 -119l-154 89l37 40v392q0 79 -8 93.5t-19 14.5q-12 0 -55 -31l-25 37l164 110q70 -22 96 -73q20 -38 20 -142v-319l1 -55q4 -10 20 -26q4 -3 12 -11l54 37z" />
    <glyph glyph-name="twosuperior" unicode="&#xb2;" horiz-adv-x="682" 
d="M94 635l-54 19q12 66 51 115q54 68 179 154q97 67 128 115q48 75 48 153q0 48 -42 92l-247 -154l-117 105l233 150l349 -143q8 -41 8 -66q0 -86 -62 -162t-241 -145q-67 -26 -101.5 -51.5t-68.5 -72.5q62 27 143 45.5t139 18.5q101 0 192 -33l-114 -140q-136 40 -225 40
q-52 0 -101.5 -10t-96.5 -30z" />
    <glyph glyph-name="threesuperior" unicode="&#xb3;" horiz-adv-x="682" 
d="M169 636l-178 144l125 117l250 -193q53 53 53 132q0 97 -65 146q-40 30 -142 30h-35v51q120 0 168.5 43.5t48.5 118.5q0 37 -17 58q-12 15 -32 15t-52 -22l-146 -102l-106 114l136 92l415 -113q-20 -102 -60 -152.5t-107 -71.5q103 -26 146.5 -73t43.5 -97
q0 -89 -88.5 -156t-357.5 -81z" />
    <glyph glyph-name="onehalf" unicode="&#xbd;" horiz-adv-x="2069" 
d="M639 -68h-131l910 1458h131zM728 759l-169 -119l-154 89l37 40v392q0 79 -8 93.5t-19 14.5q-12 0 -55 -31l-25 37l164 110q70 -22 96 -73q20 -38 20 -142v-319l1 -55q4 -10 20 -26q4 -3 12 -11l54 37zM1296 0l-54 19q12 66 51 115q54 68 180 154q96 67 127 116
q48 74 48 152q0 48 -41 92l-248 -153l-117 104l233 150l349 -143q9 -41 9 -66q0 -86 -62 -162q-63 -76 -241 -145q-68 -26 -102.5 -51.5t-68.5 -72.5q63 27 144 45.5t138 18.5q101 0 193 -33l-115 -140q-136 40 -225 40q-52 0 -101.5 -10t-96.5 -30z" />
    <glyph glyph-name="onequarter" unicode="&#xbc;" horiz-adv-x="2068" 
d="M639 -68h-131l910 1458h131zM728 759l-169 -119l-154 89l37 40v392q0 79 -8 93.5t-19 14.5q-12 0 -55 -31l-25 37l164 110q70 -22 96 -73q20 -38 20 -142v-319l1 -55q4 -10 20 -26q4 -3 12 -11l54 37zM1649 -1l-148 86l28 41v72h-281l-35 138l345 409q61 -12 87 -31
t41 -57.5t15 -107.5v-227h100l31 -124h-131v-33l33 -47l49 26l28 -40zM1529 322v202q0 25 3 59q-2 16 -10 26q-3 5 -8 5q-13 0 -41 -33l-211 -252z" />
    <glyph glyph-name="threequarters" unicode="&#xbe;" horiz-adv-x="2068" 
d="M638 -68h-130l910 1458h131zM354 636l-178 144l125 117l250 -193q53 53 53 132q0 97 -65 146q-40 30 -142 30h-35v51q120 0 168.5 43.5t48.5 118.5q0 37 -17 58q-12 15 -32 15t-52 -22l-146 -102l-106 114l136 92l415 -113q-20 -102 -60 -152.5t-107 -71.5
q103 -26 146.5 -73t43.5 -97q0 -89 -88.5 -156t-357.5 -81zM1649 -1l-148 86l28 41v72h-281l-35 138l345 409q61 -12 87 -31t40.5 -57.5t14.5 -107.5v-227h101l31 -124h-132v-33l34 -47l48 26l29 -40zM1529 322v202q0 25 2 59q-1 16 -9 26q-3 5 -9 5q-13 0 -40 -33
l-211 -252z" />
    <glyph glyph-name="sfthyphen" unicode="&#xad;" horiz-adv-x="811" 
d="M338 592h347v-129h-347v129z" />
    </font>
</defs>
</svg>
